<svg id="Layer_1" data-name="Layer 1" xmlns="http://www.w3.org/2000/svg" viewBox="0 0 50 50"><defs><style>.cls-1{fill:#ec2227;}</style></defs><title>cart</title><path class="cls-1" d="M222,164c-3.75-1-5.09-3.14-5-6.24.13-9.41,0-18.82,0-28.24v-1.44h8.66v1.86h-6.08c0,.53-.08.93-.08,1.33v27c0,2.63,1.38,3.73,4.61,3.74h35.77c3.18,0,4.61-1.12,4.62-3.62V130h-6.17v-1.93H267v1.31c0,9.45-.08,18.91,0,28.36,0,3.1-1.31,5.21-5,6.24Z" transform="translate(-217.01 -114)"/><path class="cls-1" d="M243.88,114a45.24,45.24,0,0,1,6.68,2.51c3.28,1.88,5.21,4.93,5.17,8.16.1,2.62,0,5.25,0,7.87a1.46,1.46,0,0,0,.87,1.55,2.57,2.57,0,0,1,1.07,4,3.05,3.05,0,0,1-.48.47,4.44,4.44,0,0,1-5.3.11l-.14-.11a2.6,2.6,0,0,1,.15-4.24,3.77,3.77,0,0,1,.54-.34,1.69,1.69,0,0,0,.76-1.17c.07-2.66.08-5.33,0-8,0-5-5-9-11.24-9s-11.24,4-11.24,9c-.07,2.66,0,5.33,0,8a1.72,1.72,0,0,0,.75,1.19c2,1.3,2.28,3.2.67,4.57a4.44,4.44,0,0,1-5.3.1l-.12-.1a2.6,2.6,0,0,1,.11-4.24,3.94,3.94,0,0,1,.55-.35,1.88,1.88,0,0,0,.78-1.29c.06-2.45,0-4.91,0-7.37-.17-5.43,4.63-10.14,11.3-11.1A3.35,3.35,0,0,0,240,114Zm-14.37,21.08c-.57.68-1.17,1.07-1.15,1.46s.82.93,1.11.87a1.68,1.68,0,0,0,1.18-1c.09-.26-.56-.67-1.14-1.33Zm26.73,1.4c-.77-.44-1.25-1-1.65-.9a4.9,4.9,0,0,0-1.31.93c.44.32.84.84,1.34.91s.86-.48,1.62-.94Z" transform="translate(-217.01 -114)"/><path class="cls-1" d="M233.29,129.92v-1.83h17.35v1.83Z" transform="translate(-217.01 -114)"/></svg>