<svg id="Layer_1" data-name="Layer 1" xmlns="http://www.w3.org/2000/svg" viewBox="0 0 149 21"><defs><style>.cls-1{fill:#be1e2d;}.cls-1,.cls-2{stroke:#fff;stroke-linecap:round;stroke-linejoin:round;}.cls-2{fill:#231f20;}</style></defs><title>logo-nguyeensport</title><path class="cls-1" d="M143.92,275.14v-20l7.66,11.95v-7.28h-.84v-3.9h3.41v19.23H152l-5.49-8.79v4.89h.84v3.9Z" transform="translate(-143.42 -254.64)"/><path class="cls-1" d="M155.14,259.81v-3.9h11.7v6.81l-2.57-1v-1.93h-5.09v11.43h5.09v-2.61h-2.08v-3.9h4.65v10.41H156.61V259.81Z" transform="translate(-143.42 -254.64)"/><path class="cls-1" d="M167.83,259.81v-3.9h4v13.46l1.26,1.87H177V255.91h2.58v19.23h-7.09l-3.14-4.67V259.81Z" transform="translate(-143.42 -254.64)"/><path class="cls-1" d="M180.41,259.81v-3.9h3.22l2.71,8,2.46-8h3l-4.2,13.68v5.55h-2.57v-5.91l-3.19-9.42Z" transform="translate(-143.42 -254.64)"/><path class="cls-1" d="M191.62,259.81v-3.9h11.72V263l-2.57-1v-2.2h-5.1v3.76h4.19v3.91h-4.19v3.76h5.1V269l2.57-1v7.09H193.1V259.81Z" transform="translate(-143.42 -254.64)"/><path class="cls-1" d="M204.13,259.81v-3.9h11.71V263l-2.57-1v-2.2h-5.09v3.76h4.18v3.91h-4.18v3.76h5.09V269l2.57-1v7.09H205.6V259.81Z" transform="translate(-143.42 -254.64)"/><path class="cls-1" d="M217.61,275.14v-20l7.67,11.95v-7.28h-.84v-3.9h3.41v19.23h-2.18l-5.48-8.79v4.89H221v3.9Z" transform="translate(-143.42 -254.64)"/><path class="cls-2" d="M232.57,275.14v-6.32l2.58,1v1.38h5v-2.42l-7.56-3.32v-9.59H242.7v6.68l-2.57-1.1v-1.68h-5v2.61l7.55,3.33v9.39Z" transform="translate(-143.42 -254.64)"/><path class="cls-2" d="M243.59,271.35V267l1.47-.69V255.91H255.3v9.94l-7.67,3.6v5.69h-2.57v-4.47Zm4-6.21,5.09-2.39v-2.94h-5.09Z" transform="translate(-143.42 -254.64)"/><path class="cls-2" d="M256.87,275.14V255.91h10.24v19.23Zm2.57-3.9h5.1V259.81h-5.1Z" transform="translate(-143.42 -254.64)"/><path class="cls-2" d="M268.09,270.86V266.6l1.47-.69v-10H279.8v9.45l-3,1.4,3.38,8.38h-3.55l-2.81-7-1.71.8v6.18h-2.57v-5Zm4-6.21,5.1-2.4v-2.44h-5.1Z" transform="translate(-143.42 -254.64)"/><path class="cls-2" d="M280.89,263.61v-7.7h11v7.7l-2.57-1v-2.8h-1.66v15.33h-2.57V259.81h-1.66v2.8Z" transform="translate(-143.42 -254.64)"/></svg>