<svg id="Layer_1" data-name="Layer 1" xmlns="http://www.w3.org/2000/svg" viewBox="0 0 250 50"><defs><style>.cls-1{fill:#be1e2d;}.cls-2{fill:#231f20;}</style></defs><title>nguyeensport</title><path class="cls-1" d="M92.92,290.14v-50l13,29.88v-18.2h-1.42v-9.76h5.76v48.08h-3.68l-9.27-22v12.23h1.41v9.75Z" transform="translate(-92.92 -240.14)"/><path class="cls-1" d="M111.87,251.82v-9.76h19.78v17l-4.35-2.47v-4.81h-8.6v28.57h8.6v-6.52h-3.51v-9.76h7.86v26h-17.3V251.82Z" transform="translate(-92.92 -240.14)"/><path class="cls-1" d="M133.31,251.82v-9.76h6.82v33.66l2.13,4.67h6.46V242.06h4.35v48.08h-12l-5.31-11.67V251.82Z" transform="translate(-92.92 -240.14)"/><path class="cls-1" d="M154.56,251.82v-9.76H160l4.57,20,4.15-20h5.11l-7.09,34.21v13.87H162.4V275.37L157,251.82Z" transform="translate(-92.92 -240.14)"/><path class="cls-1" d="M173.5,251.82v-9.76h19.79v17.72L189,257.31v-5.49h-8.61v9.4h7.08V271h-7.08v9.41H189v-5.5l4.34-2.47v17.72H176V251.82Z" transform="translate(-92.92 -240.14)"/><path class="cls-1" d="M194.62,251.82v-9.76h19.79v17.72l-4.34-2.47v-5.49h-8.61v9.4h7.08V271h-7.08v9.41h8.61v-5.5l4.34-2.47v17.72H197.12V251.82Z" transform="translate(-92.92 -240.14)"/><path class="cls-1" d="M217.41,290.14v-50l13,29.88v-18.2h-1.42v-9.76h5.76v48.08H231l-9.27-22v12.23h1.42v9.75Z" transform="translate(-92.92 -240.14)"/><path class="cls-2" d="M242.68,290.14V274.35L247,277v3.44h8.42v-6L242.68,266v-24h17.11v16.69L255.44,256v-4.18H247v6.52l12.77,8.32v23.48Z" transform="translate(-92.92 -240.14)"/><path class="cls-2" d="M261.28,280.66V269.89l2.48-1.73v-26.1h17.3v24.86l-12.95,9v14.22h-4.35V279Zm6.83-15.51,8.6-6v-7.35h-8.6Z" transform="translate(-92.92 -240.14)"/><path class="cls-2" d="M283.72,290.14V242.06H301v48.08Zm4.34-9.75h8.61V251.82h-8.61Z" transform="translate(-92.92 -240.14)"/><path class="cls-2" d="M302.68,279.43V268.78l2.47-1.71v-25h17.3v23.63l-5,3.5,5.71,20.95h-6l-4.74-17.45-2.88,2v15.45h-4.35V277.71Zm6.82-15.52,8.6-6v-6.11h-8.6Z" transform="translate(-92.92 -240.14)"/><path class="cls-2" d="M324.29,261.3V242.06h18.63V261.3l-4.35-2.48v-7h-2.79v38.32h-4.35V251.82h-2.79v7Z" transform="translate(-92.92 -240.14)"/></svg>