<svg id="Layer_1" data-name="Layer 1" xmlns="http://www.w3.org/2000/svg" viewBox="0 0 50 50"><defs><style>.cls-1{fill:#ed1c24;}</style></defs><title>search</title><path class="cls-1" d="M248,225.79a49.54,49.54,0,0,1,5.71,1.56,19.15,19.15,0,0,1,7.42,29.77l-.72.89,16.72,16.66v.79c-.7.58-1.24.35-1.83-.24q-7.6-7.67-15.25-15.28a3.64,3.64,0,0,1-.47-.68,62.84,62.84,0,0,1-5.79,3.34A19.16,19.16,0,1,1,244.07,226a2,2,0,0,0,.45-.16Zm-19.18,19.27a17.5,17.5,0,1,0,17.49-17.53A17.55,17.55,0,0,0,228.85,245.06Z" transform="translate(-227.16 -225.79)"/></svg>