<svg id="Layer_1" data-name="Layer 1" xmlns="http://www.w3.org/2000/svg" viewBox="0 0 50 50"><defs><style>.cls-1{fill:#ec2227;}</style></defs><title>user</title><path class="cls-1" d="M215.91,137.18a51.46,51.46,0,0,1,1.8-7.14c3.51-8.66,9.91-14.07,19.15-15.51,10.5-1.65,18.89,2.23,24.93,10.94,6.42,9.26,5.1,22.85-2.79,30.89A25.06,25.06,0,0,1,243.6,164a2.69,2.69,0,0,0-.55.17h-4.14l-2.1-.37c-9.19-1.72-15.63-6.91-19.14-15.56a51.46,51.46,0,0,1-1.8-7.14Zm41.64,18.09A23.29,23.29,0,1,0,218,134.47c-1.74,8.84,2.09,17.25,6.22,20.66v-4.92a10.8,10.8,0,0,1,10.49-11.11h11.44c6.72,0,11.33,4.61,11.36,11.34C257.56,152,257.55,153.54,257.55,155.27Zm-16.63-14.46v.05c-2.28,0-4.56-.1-6.82,0a8.87,8.87,0,0,0-8,7.88c-.19,2.56-.14,5.13-.15,7.7a1.44,1.44,0,0,0,.54.93,23.22,23.22,0,0,0,28.87,0,1.73,1.73,0,0,0,.56-1.12q.08-3,0-6a9.09,9.09,0,0,0-8.79-9.39H247C245,140.7,242.93,140.81,240.92,140.81Z" transform="translate(-215.87 -114.16)"/><path class="cls-1" d="M240.92,137.39a8.33,8.33,0,0,1-.63-16.65h.58a8.33,8.33,0,0,1,.63,16.65A5.61,5.61,0,0,1,240.92,137.39Zm0-14.95a6.66,6.66,0,1,0,6.67,6.64V129A6.64,6.64,0,0,0,240.92,122.44Z" transform="translate(-215.87 -114.16)"/></svg>