<?xml version="1.0" encoding="utf-8"?>
<!-- Generator: Adobe Illustrator 23.0.1, SVG Export Plug-In . SVG Version: 6.00 Build 0)  -->
<svg version="1.1" id="Layer_1" xmlns="http://www.w3.org/2000/svg" xmlns:xlink="http://www.w3.org/1999/xlink" x="0px" y="0px"
	 viewBox="0 0 305 203" style="enable-background:new 0 0 305 203;" xml:space="preserve">
<style type="text/css">
	.st0{fill:#D85050;}
	.st1{fill:#FFFFFF;}
</style>
<title>adidas-logo</title>
<g>
	<path class="st0" d="M277.5,198.1c-6.8,0-12.3-1.2-16.6-3.7c-2.5-1.4-4.7-3.5-6.1-6c-1.4-2.6-2.1-5.5-2.1-8.5c0-0.5,0.5-1,1-1h13.4
		c0.3,0,0.5,0.1,0.7,0.3c0.2,0.2,0.3,0.5,0.3,0.7c-0.1,1.7,0.7,3.4,2.1,4.5c1.5,1.1,4,1.7,7.7,1.7c2.7,0,4.7-0.5,6-1.6
		c0.8-0.6,1.3-1.5,1.3-2.5c0-1.5-2.5-2.8-7.1-3.9c-5.3-1.1-12.3-2.8-15-4.1c-5.7-2.7-8.6-6.9-8.6-12.7c-0.1-4.3,1.5-8.5,4.5-11.6
		c3.7-3.9,9.2-5.9,16.5-5.9c5.8,0,10.6,0.9,14.3,2.6c0.3,0.1,0.6,0.3,0.9,0.5c2.5,1.3,4.6,3.3,6,5.8c1.4,2.7,2.1,5.6,2,8.6
		c0,0.5-0.5,1-1,1H285c-0.5,0-0.9-0.4-1-0.9c-0.2-1.4-0.7-2.8-1.6-3.9c-1.1-1.1-3.2-1.7-6.1-1.7c-2.9,0-4.9,0.5-5.9,1.3
		c-0.7,0.6-1.1,1.5-1.1,2.5c0,0.7,0.7,2.3,7.2,3.7c4.4,0.9,8.9,2,13.2,3.4c0.7,0.2,1.3,0.5,1.9,0.7c5.8,2.7,8.7,6.9,8.7,12.5
		c0,6.7-2.8,11.7-8.4,14.7c-0.6,0.3-1.3,0.7-2.1,1c-3.7,1.5-7.6,2.3-11.6,2.3C277.9,198.1,277.7,198.1,277.5,198.1z"/>
	<path class="st1" d="M275.5,145c5.8,0,10.4,0.8,13.9,2.5c0.3,0.1,0.6,0.3,0.8,0.4c2.4,1.2,4.3,3.1,5.7,5.4c1.3,2.5,2,5.3,1.9,8.1
		H285c-0.2-1.6-0.8-3.2-1.9-4.4c-1.4-1.4-3.7-2.1-6.9-2.1c-3.2,0-5.4,0.5-6.6,1.6c-0.9,0.8-1.5,2-1.4,3.3c0,1.9,2.7,3.5,8,4.7
		c4.4,0.9,8.8,2,13.1,3.4c0.6,0.2,1.2,0.4,1.8,0.7c5.4,2.6,8.1,6.4,8.1,11.6c0,6.3-2.6,11-7.9,13.9c-0.7,0.4-1.3,0.7-2,1
		c-3.6,1.5-7.4,2.2-11.2,2.2c-0.2,0-0.4,0-0.5,0c-6.6,0-12-1.2-16.1-3.5c-2.4-1.3-4.4-3.3-5.8-5.6c-1.3-2.4-2-5.2-1.9-8h13.4
		c-0.1,2.1,0.8,4.1,2.5,5.3c1.6,1.3,4.4,1.9,8.3,1.9c2.9,0,5.1-0.6,6.6-1.9c1-0.8,1.7-2,1.7-3.3c0-2.1-2.6-3.7-7.9-4.8
		c-7.8-1.7-12.8-3-14.8-4c-5.4-2.5-8-6.4-8-11.8c-0.1-4.1,1.4-8,4.2-11C263.2,146.8,268.5,145,275.5,145 M267.2,180L267.2,180
		 M275.5,143c-7.6,0-13.4,2.1-17.3,6.2c-3.2,3.4-4.8,7.7-4.7,12.3c0,6.2,3.1,10.7,9.2,13.5c2.3,1.1,7.4,2.5,15.2,4.2
		c5.2,1.1,6.3,2.5,6.3,2.9c0,0.6-0.3,1.3-0.9,1.6c0,0-0.1,0.1-0.1,0.1c-1.1,0.9-2.9,1.4-5.3,1.4c-4.3,0-6.2-0.8-7.1-1.5
		c-1.1-0.9-1.7-2.2-1.7-3.6c0-0.1,0-0.1,0-0.2c0-1.1-0.9-2-2-2h0h-13.4c-1.1,0-2,0.9-2,2c-0.1,3.1,0.7,6.2,2.2,9c0,0,0,0,0,0.1
		c1.6,2.7,3.8,4.9,6.5,6.4c4.4,2.5,10.1,3.8,17.1,3.8c0.2,0,0.3,0,0.5,0c4.1,0,8.2-0.8,12-2.4c0.7-0.3,1.4-0.6,2.2-1
		c5.9-3.3,8.9-8.5,8.9-15.6c0-6-3.1-10.5-9.2-13.4c-0.7-0.3-1.3-0.6-2-0.8c-4.4-1.4-8.9-2.6-13.4-3.5c-5.9-1.3-6.4-2.7-6.4-2.7
		c0,0,0-0.1,0-0.1c0-0.6,0.2-1.3,0.7-1.7c0.6-0.5,2-1.1,5.3-1.1c2.6,0,4.4,0.5,5.4,1.4c0.8,1,1.2,2.1,1.3,3.3c0.1,1,1,1.8,2,1.8
		h12.8c1.1,0,2-0.9,2-1.9c0.1-3.1-0.6-6.3-2.1-9.1c0,0,0,0,0-0.1c-1.5-2.6-3.7-4.7-6.4-6.1c-0.3-0.2-0.7-0.4-1.1-0.6
		C286.4,143.9,281.5,143,275.5,143L275.5,143z"/>
</g>
<g>
	<path class="st0" d="M200.2,130.9c-0.4,0-0.7-0.2-0.9-0.5l-34.5-57.5l-26.1-43.5c-0.3-0.5-0.1-1.1,0.3-1.4l26.1-15.7l16.5-9.9
		c0.2-0.1,0.3-0.1,0.5-0.1c0.1,0,0.2,0,0.2,0c0.3,0.1,0.5,0.2,0.6,0.5l40,66.5l36.1,60.2c0.2,0.3,0.2,0.7,0,1
		c-0.2,0.3-0.5,0.5-0.9,0.5H200.2z"/>
	<path class="st1" d="M182.2,3.2l40,66.5l36.1,60.2h-36.1h-21.9l-34.5-57.5l-26.1-43.5l26.1-15.7L182.2,3.2 M182.2,1.2
		c-0.4,0-0.7,0.1-1,0.3l-16.5,9.9l-26.1,15.7c-0.9,0.6-1.3,1.8-0.7,2.7L164,73.4l34.5,57.5c0.4,0.6,1,1,1.7,1h21.9h36.1
		c0.7,0,1.4-0.4,1.7-1c0.4-0.6,0.3-1.4,0-2l-36.1-60.2l-40-66.5c-0.3-0.5-0.7-0.8-1.2-0.9C182.5,1.3,182.3,1.2,182.2,1.2L182.2,1.2z
		"/>
</g>
<g>
	<path class="st0" d="M222.1,198.9c-15,0-27.1-12.2-27.1-27.1c0-15,12.2-27.1,27.1-27.1h0.1c4.6,0,9.1,1.2,13.1,3.4v-1.1
		c0-0.6,0.4-1,1-1h12c0.6,0,1,0.4,1,1l0,24.8v24.7c0,0.6-0.4,1-1,1h-12c-0.6,0-1-0.4-1-1v-1c-4,2.2-8.5,3.4-13.1,3.4
		C222.3,198.9,222.1,198.9,222.1,198.9z M222.1,158.4c-7.4,0-13.4,6-13.4,13.4s6,13.4,13.4,13.4h0.1c6.3,0,11.8-4.6,13.1-10.8v-5.3
		c-1.3-6.2-6.7-10.7-13.1-10.7H222.1z"/>
	<path class="st1" d="M222.3,145.6c5,0,9.9,1.5,14.1,4.2v-2.9h12l0,24.8v24.7h-12v-2.7c-4.2,2.7-9.1,4.2-14.1,4.2c0,0,0,0,0,0h-0.2
		c-14.4,0-26.1-11.7-26.1-26.1c0-14.4,11.7-26.1,26.1-26.1H222.3C222.3,145.6,222.3,145.6,222.3,145.6 M222.1,186.1h0.1
		c6.9,0,12.8-4.9,14.1-11.7v0v0v0V169c-1.3-6.7-7.2-11.6-14.1-11.6h-0.2c-7.9,0-14.4,6.4-14.4,14.4
		C207.7,179.7,214.2,186.1,222.1,186.1 M236.4,174.5L236.4,174.5 M222.3,143.6C222.3,143.6,222.3,143.6,222.3,143.6l-0.2,0
		c-15.5,0-28.1,12.6-28.1,28.1s12.6,28.1,28.1,28.1h0.2c4.3,0,8.4-1,12.2-2.8c0.3,0.8,1,1.4,1.9,1.4h12c1.1,0,2-0.9,2-2v-24.7
		l0-24.8c0-1.1-0.9-2-2-2h-12c-0.9,0-1.7,0.6-1.9,1.5C230.6,144.5,226.5,143.6,222.3,143.6L222.3,143.6z M222.2,184.1l-0.1,0
		c-6.8,0-12.4-5.6-12.4-12.4c0-6.8,5.6-12.4,12.4-12.4h0.2c5.8,0,10.9,4.1,12.1,9.8v5.1C233.2,180,228.1,184.1,222.2,184.1
		L222.2,184.1z"/>
</g>
<g>
	<path class="st0" d="M165.7,198.9c-15,0-27.1-12.2-27.1-27.1c0-15,12.2-27.1,27.1-27.1h0.1c4.6,0,9.1,1.2,13.1,3.4v-18.1
		c0-0.6,0.4-1,1-1h12c0.6,0,1,0.4,1,1l0,41.8v24.7c0,0.6-0.4,1-1,1h-12c-0.6,0-1-0.4-1-1v-1c-4,2.2-8.5,3.4-13.1,3.4
		C165.9,198.9,165.7,198.9,165.7,198.9z M165.7,158.4c-7.4,0-13.4,6-13.4,13.4s6,13.4,13.4,13.4h0.1c6.3,0,11.8-4.6,13.1-10.8v-5.3
		c-1.3-6.2-6.7-10.7-13.1-10.7H165.7z"/>
	<path class="st1" d="M191.9,129.9l0,41.8v24.7h-12v-2.7c-4.2,2.7-9.1,4.2-14.1,4.2h-0.1c-14.4,0-26.1-11.7-26.1-26.1
		c0-14.4,11.7-26.1,26.1-26.1h0.1c5,0,9.9,1.5,14.1,4.2v-19.8H191.9 M165.7,186.1h0.1c6.9,0,12.8-4.9,14.1-11.7V169
		c-1.3-6.7-7.2-11.6-14.1-11.6h-0.1c-7.9,0-14.4,6.4-14.4,14.4C151.3,179.7,157.8,186.1,165.7,186.1 M191.9,127.9h-12
		c-1.1,0-2,0.9-2,2v16.4c-3.7-1.8-7.9-2.8-12.1-2.8h-0.1c-15.5,0-28.1,12.6-28.1,28.1s12.6,28.1,28.1,28.1h0.1c4.2,0,8.4-1,12.2-2.8
		c0.3,0.8,1,1.4,1.9,1.4h12c1.1,0,2-0.9,2-2v-24.7l0-41.8C193.9,128.8,193,127.9,191.9,127.9L191.9,127.9z M165.8,184.1l-0.1,0
		c-6.8,0-12.4-5.6-12.4-12.4c0-6.8,5.6-12.4,12.4-12.4h0.1c5.8,0,10.9,4.1,12.1,9.8v5.1C176.7,180,171.7,184.1,165.8,184.1
		L165.8,184.1z"/>
</g>
<g>
	<path class="st0" d="M121.9,130.9c-0.4,0-0.7-0.2-0.9-0.5L87.4,74.5c-0.1-0.2-0.2-0.5-0.1-0.8c0.1-0.3,0.2-0.5,0.5-0.6l1.4-0.8
		l41.2-24.8c0.2-0.1,0.3-0.1,0.5-0.1c0.1,0,0.2,0,0.2,0c0.3,0.1,0.5,0.2,0.6,0.5l34.8,57.9l14.2,23.7c0.2,0.3,0.2,0.7,0,1
		c-0.2,0.3-0.5,0.5-0.9,0.5H121.9z"/>
	<path class="st1" d="M130.9,48.3l34.8,57.9l14.2,23.7h-14.2h-43.8L89.7,76.3L88.3,74l1.4-0.8L130.9,48.3 M130.9,46.3
		c-0.4,0-0.7,0.1-1,0.3L88.7,71.4l-1.4,0.8c-0.5,0.3-0.8,0.7-0.9,1.2c-0.1,0.5,0,1.1,0.2,1.5l1.4,2.3l32.2,53.6c0.4,0.6,1,1,1.7,1
		h43.8h14.2c0.7,0,1.4-0.4,1.7-1c0.4-0.6,0.3-1.4,0-2l-14.2-23.7l-34.8-57.9c-0.3-0.5-0.7-0.8-1.2-0.9
		C131.2,46.3,131.1,46.3,130.9,46.3L130.9,46.3z"/>
</g>
<g>
	<path class="st0" d="M122,197.4c-0.6,0-1-0.4-1-1v-50.8c0-0.6,0.4-1,1-1H135c0.6,0,1,0.4,1,1v50.8c0,0.6-0.4,1-1,1H122z"/>
	<path class="st1" d="M135,145.6v50.8H122v-50.8H135 M135,143.6H122c-1.1,0-2,0.9-2,2v50.8c0,1.1,0.9,2,2,2H135c1.1,0,2-0.9,2-2
		v-50.8C137,144.5,136.1,143.6,135,143.6L135,143.6z"/>
</g>
<g>
	<path class="st0" d="M122,142.7c-0.6,0-1-0.4-1-1v-11.5c0-0.6,0.4-1,1-1H135c0.6,0,1,0.4,1,1v11.5c0,0.6-0.4,1-1,1H122z"/>
	<path class="st1" d="M135,130.2v11.5H122v-11.5H135 M135,128.2H122c-1.1,0-2,0.9-2,2v11.5c0,1.1,0.9,2,2,2H135c1.1,0,2-0.9,2-2
		v-11.5C137,129.1,136.1,128.2,135,128.2L135,128.2z"/>
</g>
<g>
	<path class="st0" d="M89.7,198.9c-15,0-27.1-12.2-27.1-27.1c0-15,12.2-27.1,27.1-27.1h0.1c4.6,0,9.1,1.2,13.1,3.4v-18.1
		c0-0.6,0.4-1,1-1h12c0.6,0,1,0.4,1,1l0,41.8v24.7c0,0.6-0.4,1-1,1h-12c-0.6,0-1-0.4-1-1v-1c-4,2.2-8.5,3.4-13.1,3.4H89.7z
		 M89.7,158.4c-7.4,0-13.4,6-13.4,13.4s6,13.4,13.4,13.4h0.1c6.4,0,11.9-4.5,13.2-10.8v-5.3c-1.3-6.2-6.8-10.7-13.1-10.7H89.7z"/>
	<path class="st1" d="M115.9,129.9l0,41.8v24.7h-12v-2.7c-4.2,2.7-9.1,4.2-14.1,4.2c0,0,0,0,0,0h-0.1c-14.4,0-26.1-11.7-26.1-26.1
		c0-14.4,11.7-26.1,26.1-26.1h0.1c5,0,9.9,1.5,14.1,4.2v-19.8H115.9 M89.7,186.1h0.1c6.9,0,12.8-4.9,14.2-11.7v0v0v0V169
		c-1.3-6.8-7.2-11.6-14.1-11.6c0,0,0,0,0,0h-0.1c-7.9,0-14.4,6.4-14.4,14.4C75.3,179.7,81.7,186.1,89.7,186.1 M104,174.5L104,174.5
		 M115.9,127.9h-12c-1.1,0-2,0.9-2,2v16.4c-3.8-1.8-7.9-2.8-12.1-2.8h-0.1c-15.5,0-28.1,12.6-28.1,28.1s12.6,28.1,28.1,28.1h0.1
		c4.3,0,8.5-1,12.3-2.8c0.3,0.8,1,1.4,1.9,1.4h12c1.1,0,2-0.9,2-2v-24.7l0-41.8C117.9,128.8,117,127.9,115.9,127.9L115.9,127.9z
		 M89.7,184.1c-6.8,0-12.4-5.6-12.4-12.4s5.6-12.4,12.4-12.4h0.1c5.9,0,10.9,4.1,12.2,9.8v5.1c-1.2,5.7-6.3,9.9-12.2,9.9H89.7
		L89.7,184.1z"/>
</g>
<g>
	<path class="st0" d="M43.5,130.9c-0.4,0-0.7-0.2-0.9-0.5l-6.5-10.9c-0.3-0.5-0.1-1.1,0.3-1.4l42.6-25.6c0.2-0.1,0.3-0.1,0.5-0.1
		c0.3,0,0.7,0.2,0.9,0.5l10,16.7l11.9,19.8c0.2,0.3,0.2,0.7,0,1c-0.2,0.3-0.5,0.5-0.9,0.5H43.5z"/>
	<path class="st1" d="M79.7,93.4l10,16.7l11.9,19.8H89.7H43.5L37,119L79.7,93.4 M79.7,91.4c-0.4,0-0.7,0.1-1,0.3L36,117.3
		c-0.9,0.6-1.3,1.8-0.7,2.7l6.5,10.9c0.4,0.6,1,1,1.7,1h46.2h11.9c0.7,0,1.4-0.4,1.7-1c0.4-0.6,0.3-1.4,0-2l-11.9-19.8l-10-16.7
		C81,91.8,80.3,91.4,79.7,91.4L79.7,91.4z"/>
</g>
<g>
	<path class="st0" d="M32.7,198.9c-15,0-27.1-12.2-27.1-27.1c0-15,12.2-27.1,27.1-27.1h0.1c4.6,0,9.1,1.2,13.1,3.4v-1.1
		c0-0.6,0.4-1,1-1h12c0.6,0,1,0.4,1,1v49.5c0,0.6-0.4,1-1,1H47c-0.6,0-1-0.4-1-1v-1c-4,2.2-8.5,3.4-13.1,3.4H32.7z M32.7,158.4
		c-7.4,0-13.4,6-13.4,13.4s6,13.4,13.4,13.4h0.1c6.4,0,11.9-4.5,13.1-10.8v-5.3c-1.3-6.2-6.8-10.7-13.1-10.7H32.7z"/>
	<path class="st1" d="M32.8,145.6c5,0,9.9,1.5,14.1,4.2v-2.9h12v24.8v24.7H47v-2.7c-4.2,2.7-9.1,4.2-14.1,4.2h-0.1
		c-14.4,0-26.1-11.7-26.1-26.1c0-14.4,11.7-26.1,26.1-26.1H32.8 M32.7,186.1h0.1c6.9,0,12.8-4.9,14.1-11.7v0v0v0V169
		c-1.3-6.8-7.2-11.6-14.1-11.6c0,0,0,0,0,0h-0.1c-7.9,0-14.4,6.4-14.4,14.4C18.3,179.7,24.8,186.1,32.7,186.1 M47,174.5L47,174.5
		 M32.8,143.6C32.8,143.6,32.8,143.6,32.8,143.6h-0.1c-15.5,0-28.1,12.6-28.1,28.1s12.6,28.1,28.1,28.1h0.1c4.3,0,8.4-1,12.2-2.8
		c0.3,0.8,1,1.4,1.9,1.4h12c1.1,0,2-0.9,2-2v-24.7v-24.8c0-1.1-0.9-2-2-2H47c-0.9,0-1.7,0.6-1.9,1.5
		C41.2,144.5,37.1,143.6,32.8,143.6L32.8,143.6z M32.8,184.1h-0.1c-6.8,0-12.4-5.6-12.4-12.4s5.6-12.4,12.4-12.4h0.1
		c5.9,0,10.9,4.1,12.1,9.8v5.1C43.8,180,38.7,184.1,32.8,184.1L32.8,184.1z"/>
</g>
</svg>
