<?xml version="1.0" encoding="utf-8"?>
<!-- Generator: Adobe Illustrator 23.0.1, SVG Export Plug-In . SVG Version: 6.00 Build 0)  -->
<svg version="1.1" xmlns="http://www.w3.org/2000/svg" xmlns:xlink="http://www.w3.org/1999/xlink" x="0px" y="0px"
	 viewBox="0 0 600 600" style="enable-background:new 0 0 600 600;" xml:space="preserve">
<style type="text/css">
	.st0{fill-rule:evenodd;clip-rule:evenodd;fill:#D85050;}
	.st1{fill:#FFFFFF;}
	.st2{display:none;}
</style>
<g id="New_Layer">
	<g>
		<g>
			<path class="st0" d="M338.3,318.4c-0.2,0-0.4,0-0.5-0.2c-0.4-0.3-0.6-0.8-0.4-1.3l3.3-7.2c4-9.1,3.9-25-0.2-34.1
				c-5.7-12.4-23.4-30.1-55.8-55.6c-54.8-43.2-61-51.7-60.8-82.1c0-8.8,0.8-17.4,1.8-19.3c0.3-0.6,0.8-0.9,1.4-0.9
				c0.7,0,2.3,0,6.8,9.7c6.9,16.3,20.2,30.7,55,59.2c17.1,14.1,36.4,31.5,42.9,38.8c25.8,29.6,31.1,63,13.6,85l-6.2,7.4
				C338.9,318.2,338.6,318.4,338.3,318.4z"/>
			<path class="st1" d="M227,118.9c1.1,0,3.3,3.4,5.9,9.1c7,16.6,20.4,30.9,55.3,59.6c16.9,13.9,36.2,31.3,42.8,38.7
				c25.3,29.1,30.6,62.2,13.6,83.7l-6.2,7.4l3.3-7.2c4.1-9.4,3.9-25.7-0.2-34.9c-5.8-12.5-23.4-30.2-56.1-56
				c-54.5-43-60.7-51.3-60.4-81.3c0-9,0.8-17.2,1.6-18.8C226.6,119,226.8,118.9,227,118.9 M227,116.9c-1,0-1.8,0.5-2.3,1.4
				c-1.2,2.3-1.9,11.9-1.9,19.7c-0.1,15.4,1.4,25.3,10.1,37c8.5,11.4,23.9,24.4,51.1,45.9c32.3,25.4,49.9,43,55.6,55.2
				c3.9,8.7,4,24.6,0.2,33.3l-3.3,7.1c-0.4,0.9-0.1,2,0.7,2.5c0.3,0.2,0.7,0.3,1.1,0.3c0.6,0,1.1-0.2,1.5-0.7l6.2-7.4
				c8.8-11,12.1-25.1,9.5-40.6c-2.5-15.3-10.5-31.2-23.1-45.7c-6.6-7.4-25.8-24.8-43-39c-34.6-28.4-47.9-42.7-54.7-58.8
				c0,0,0,0,0-0.1C230.3,117.6,228.5,116.9,227,116.9L227,116.9z"/>
		</g>
		<g>
			<path class="st0" d="M323.1,326.2c-0.5,0-0.9-0.2-1.3-0.6c-0.9-0.9-1.6-3.1-1.1-12.8c0.8-12.3,0.2-15.5-4.2-23.4
				c-5.6-10.3-14.2-17.7-48.4-41.5c-11.8-8.2-25.6-19.9-30.6-26.2c-9-11.2-15-27.5-15-40.7v-6.7c0-0.4,0.3-0.8,0.7-0.9
				c0.1,0,0.2-0.1,0.3-0.1c0.3,0,0.6,0.1,0.8,0.4l6.2,7.6c3.1,4,6,8.5,6.3,9.5c0,0.1,0,0.1,0,0.2c1.2,2.8,26.3,24.2,47.5,40.1
				c22.6,16.7,43.2,37.1,47.8,47.6c4.6,10.4,4.3,24.7-0.6,35.5C326.6,324.2,324.7,326.2,323.1,326.2L323.1,326.2z"/>
			<path class="st1" d="M223.4,174.3l6.2,7.6c3.3,4.3,6,8.5,6.2,9.2c0,2.2,27.6,25.5,47.9,40.7c22.8,16.8,43,36.9,47.5,47.2
				c4.5,10.3,4.1,24.4-0.6,34.7c-3.6,7.6-6,11.4-7.4,11.4c-1.4,0-1.8-4.1-1.4-12.3c0.8-12.3,0.2-15.9-4.3-24
				c-5.6-10.3-14-17.7-48.7-41.9c-11.9-8.3-25.5-19.9-30.4-26c-8.8-11-14.8-27.1-14.8-40.1V174.3 M223.4,172.3c-0.2,0-0.4,0-0.7,0.1
				c-0.8,0.3-1.3,1-1.3,1.9v6.7c0,13.4,6.1,30,15.2,41.3c5.1,6.3,19,18.1,30.8,26.4c34.1,23.7,42.7,31,48.1,41.2
				c4.3,7.7,4.9,10.9,4.1,22.9c-0.5,9.5,0.2,12.3,1.4,13.5c0.5,0.6,1.3,0.9,2,0.9c2.1,0,4.2-1.9,9.2-12.5
				c5.1-11.1,5.3-25.7,0.6-36.4c-4.7-10.8-25-31-48.1-48c-20.3-15.2-45.1-36.3-47.2-39.6c0,0,0-0.1,0-0.1c-0.4-1.2-3.5-6-6.5-9.8
				l-6.2-7.6C224.6,172.6,224,172.3,223.4,172.3L223.4,172.3z"/>
		</g>
		<g>
			<path class="st0" d="M361.5,267.2c-0.5,0-1.2-0.3-1.2-1.8c-0.4-11.6-9.1-30.4-19.5-41.9c-7.6-8.2-9.6-10.4-9-12.2
				c0.4-1.4,2.1-1.7,4.2-2.2c2.2-0.3,9-0.6,17.4-0.6c3.1,0,6.2,0,9.2,0.1c16,0.5,22.5,1.6,26.9,4.7l5.6,4c0.3,0.2,0.4,0.5,0.4,0.9
				s-0.2,0.7-0.5,0.8l-8,4c-10.3,5.1-15.7,13.5-20.5,32C363.2,267.1,362.3,267.2,361.5,267.2C361.5,267.2,361.5,267.2,361.5,267.2z"
				/>
			<path class="st1" d="M353.4,209.6c3,0,6.1,0,9.2,0.1c15.8,0.4,22.2,1.6,26.3,4.5l5.6,4l-8,4c-10.5,5.1-16,13.4-21,32.7
				c-1.8,6.9-3.4,11.3-3.9,11.3c-0.1,0-0.2-0.2-0.2-0.8c-0.4-11.9-9.3-30.9-19.7-42.5c-10.7-11.4-10.7-11.6-5.3-12.8
				C338.4,209.8,345.3,209.6,353.4,209.6 M353.4,207.6c-8.4,0-15.3,0.2-17.5,0.6c0,0-0.1,0-0.1,0c-2.3,0.5-4.4,0.9-5,2.8
				c-0.8,2.5,1.5,5,9.3,13.2c10.2,11.3,18.8,29.8,19.2,41.2c0,2.6,1.8,2.7,2.2,2.7c1.7,0,2.4-1.7,3.4-4.4c0.7-2.1,1.6-5,2.5-8.4
				c4.7-18.3,9.9-26.5,19.9-31.4l8-4c0.6-0.3,1-0.9,1.1-1.6s-0.3-1.4-0.8-1.8l-5.6-4c-4.6-3.2-11.2-4.4-27.4-4.9
				C359.6,207.6,356.5,207.6,353.4,207.6L353.4,207.6z"/>
		</g>
		<g>
			<path class="st0" d="M379.6,402.3c-0.6,0-1-0.4-1-1v-59.4h-8.3c-9.1,0-10.3-0.4-10.3-7.7v-6.7c0-0.5,0.4-1,1-1l33.5-0.4
				c9.1-0.2,18.6-0.3,25.9-0.3c22,0,27,1.4,34.1,6.6c10,7.2,15.7,19.4,15.4,32.7c-0.4,13.4-6.8,25.3-17.3,32.1
				c-5.8,3.6-9.4,5.2-15.4,5.2c0,0,0,0,0,0c-1.6,0-3.3-0.1-5.6-0.3c-12.2-1.1-19.8-5.7-26.8-16.1c-5.7-8.2-7.1-25.9-3-37l2.8-6.9
				H395v59.4c0,0.6-0.4,1-1,1H379.6z M433.7,341.8c-6.9,0-13.1,4.9-17,13.5c-3.3,7.5-3.3,9-0.8,16c1.7,5.4,4.7,8.9,10,11.8
				c3.6,1.9,6.6,2.9,9.5,2.9c4.6,0,8.7-2.4,13.6-7.8c8.3-8.8,7.9-19.4-1-29.1C443.6,344.4,438.7,341.8,433.7,341.8z"/>
			<path class="st1" d="M420.6,326.6c22,0,26.7,1.4,33.5,6.4c20.8,15,19.7,49.3-1.9,63.1c-5.9,3.7-9.2,5-14.8,5
				c-1.6,0-3.4-0.1-5.5-0.3c-11.9-1.1-19.1-5.4-26.1-15.7c-5.6-8.1-6.8-25.5-2.9-36l3.3-8.3H400h-6v30.2v30.2h-7.2h-7.2v-30.2v-30.2
				h-9.3c-8.8,0-9.3-0.2-9.3-6.7v-6.7l33.5-0.4C405.3,326.8,413.8,326.6,420.6,326.6 M435.4,387.1c4.9,0,9.4-2.6,14.3-8.1
				c8.6-9.2,8.2-20.4-1-30.4c-4.7-5.1-10-7.6-15-7.6c-7,0-13.7,4.9-17.9,14.1c-3.3,7.6-3.5,9.4-0.8,16.8c1.9,5.8,5.1,9.4,10.5,12.3
				C429.1,386,432.4,387.1,435.4,387.1 M420.6,324.6c-7.4,0-16.8,0.2-26,0.3l-33.5,0.4c-1.1,0-2,0.9-2,2v6.7c0,3.2,0,5.9,2.1,7.4
				c1.7,1.2,4.3,1.3,9.1,1.3h7.3v28.2v30.2c0,1.1,0.9,2,2,2h7.2h7.2c1.1,0,2-0.9,2-2v-30.2v-28.2h4h3.2l-2.2,5.5
				c-4.2,11.4-2.7,29.4,3.1,37.9c7.3,10.7,15,15.3,27.6,16.5c2.3,0.2,4.1,0.3,5.7,0.3c6.3,0,10-1.6,15.9-5.3
				c10.8-6.9,17.4-19.2,17.8-32.9c0.4-13.6-5.5-26.2-15.8-33.6C448,326.1,442.9,324.6,420.6,324.6L420.6,324.6z M435.4,385.1
				c-2.6,0-5.6-0.9-9-2.8c-5.1-2.8-7.9-6-9.5-11.2c0,0,0,0,0-0.1c-2.4-6.7-2.4-8,0.8-15.3c3.7-8.2,9.6-12.9,16-12.9
				c4.7,0,9.4,2.4,13.5,7c8.5,9.3,8.9,19.4,1,27.7C443.6,382.8,439.7,385.1,435.4,385.1L435.4,385.1z"/>
		</g>
		<g>
			<path class="st0" d="M218.4,401.2c-0.4,0-0.7-0.2-0.8-0.5l-6.4-11.6c-3.1-6-5.9-9.7-7.1-10.5c-0.6,1.2-1.8,5.2-2.4,10.8
				c-1,10.6-1.4,11.8-8.5,12.5l-6.8,0.7c0,0-0.1,0-0.1,0c-0.2,0-0.5-0.1-0.7-0.3c-0.2-0.2-0.3-0.5-0.3-0.7v-74.3
				c0-0.3,0.1-0.6,0.3-0.7c0.2-0.2,0.4-0.3,0.7-0.3c0,0,0.1,0,0.1,0l6.8,0.7c7.2,0.8,7.5,1.9,8.1,13.7l0.4,8.6l5.5-9.8
				c6.5-11.1,8.2-13,15.3-13c3,0,8,0.3,8,2.6c0,1.5-5.3,11.3-8.6,17.1l-8.2,14.7l8.4,15.2c4.3,8,7.6,12.7,8.9,14
				c1.6-2.7,6.9-14.9,13-30.2c3.2-8.2,6.4-15.9,8.9-21.6c4.2-9.5,4.7-9.5,5.4-9.5c0.8,0,1.1,0,5,8.9c2.4,5.4,5.3,12.6,8.3,20.1
				l9.5,23.8l1.1-52.8c0-0.4,0.3-0.8,0.6-0.9c0.1,0,0.2-0.1,0.4-0.1c0.3,0,0.5,0.1,0.7,0.3l13.8,15l13.2,14.2l12.4-13.7
				c0.1-0.1,13.3-14.9,15.5-14.9c1.1,0,1.6,0,2.1,11.5c0.3,7,0.5,16,0.5,25.3v35.8c0,0.6-0.4,1-1,1h-12.3c-0.6,0-1-0.4-1-1v-17.9
				c0-9-0.5-14.7-0.9-16.6c-1.2,0.8-3.9,3.1-7,6.5l-6.8,7.2c-0.2,0.2-0.5,0.3-0.7,0.3s-0.5-0.1-0.7-0.3l-6.8-7.2
				c-3.2-3.4-5.8-5.7-7-6.5c-0.4,1.9-0.9,7.6-0.9,16.6v17.9c0,0.6-0.4,1-1,1h-35c-0.3,0-0.6-0.2-0.8-0.4c-0.2-0.3-0.2-0.6-0.1-0.9
				l4.1-11.6c2.1-5.8,3.3-9.9,3.5-11.2c-0.2-0.1-0.5-0.3-0.8-0.4c-0.9-0.5-2.3-1.3-3.7-2.2c-3.6-2-5.2-5.5-5.6-12.9l-0.5-5.4l-3,7
				c-5.7,13.5-5.5,13.6,0.1,16.4c4.5,2.2,5.7,4.7,5.7,12.1v8.7c0,0.3-0.1,0.5-0.3,0.7c-0.2,0.2-0.4,0.3-0.7,0.3
				C258.3,402.5,218.4,401.2,218.4,401.2z"/>
			<path class="st1" d="M186.4,327.2l6.8,0.7c6.4,0.7,6.6,0.9,7.2,12.8l0.6,12.1l7.2-12.8c6.6-11.2,8-12.5,14.4-12.5
				c3.9,0,7,0.7,7,1.6c0,0.9-3.7,8.3-8.4,16.6l-8.4,15.2l8.6,15.7c4.5,8.3,8.8,14.8,9.9,14.8c0.1,0,0.1,0,0.1,0
				c0.8-0.4,7-14.6,13.6-31.1c6.6-16.8,12.5-30.4,13.4-30.4c0.6,0,6.2,12.8,12.3,28.4l11.3,28.4l0.6-28.9l0.6-28.9l13.8,15l14,15
				l13.2-14.6c7.2-8.1,14-14.6,14.8-14.6c0.8,0,1.6,16.1,1.6,35.8v35.8h-6.2h-6.2v-17.9c0-9.9-0.6-17.9-1.4-17.9
				c-0.8,0-4.5,3.1-8.2,7.2l-6.8,7.2l-6.8-7.2c-3.7-4-7.4-7.2-8.2-7.2c-0.8,0-1.4,8.1-1.4,17.9v17.9h-17.5h-17.5l4.1-11.6
				c2.3-6.3,3.9-11.9,3.5-12.1c-0.2-0.2-2.5-1.3-4.9-2.9c-3.3-1.8-4.7-4.9-5.1-12.1l-0.8-9.4l-4.5,10.7c-5.8,13.7-5.8,14.6,0.6,17.7
				c4.1,2,5.1,4,5.1,11.2v8.7l-19.9-0.7l-19.9-0.7l-6.4-11.6c-3.2-6.4-6.8-11.2-8.1-11.2c0,0-0.1,0-0.1,0c-1,0.4-2.5,5.8-3.1,11.9
				c-1,10.5-1.2,11-7.6,11.6l-6.8,0.7v-37.2V327.2 M186.4,325.2c-0.5,0-1,0.2-1.3,0.5c-0.4,0.4-0.7,0.9-0.7,1.5v37.2v37.2
				c0,0.6,0.2,1.1,0.7,1.5c0.4,0.3,0.8,0.5,1.3,0.5c0.1,0,0.1,0,0.2,0l6.8-0.7c7.9-0.8,8.3-2.7,9.4-13.4c0.4-4.1,1.2-7.4,1.7-9.1
				c1.3,1.5,3.5,4.6,5.8,9.2c0,0,0,0,0,0.1l6.4,11.6c0.3,0.6,1,1,1.7,1l19.9,0.7l19.9,0.7c0,0,0,0,0.1,0c0.4,0,0.9-0.1,1.2-0.4
				c0.3,0.1,0.5,0.2,0.8,0.2h17.5h17.5c1.1,0,2-0.9,2-2v-17.9c0-7,0.3-12.1,0.6-14.8c1.4,1.1,3.4,3,5.6,5.4l6.8,7.2
				c0.4,0.4,0.9,0.6,1.5,0.6s1.1-0.2,1.5-0.6l6.8-7.2c2.2-2.4,4.2-4.3,5.6-5.4c0.3,2.7,0.6,7.8,0.6,14.8v17.9c0,1.1,0.9,2,2,2h6.2
				h6.2c1.1,0,2-0.9,2-2v-35.8c0-9.4-0.2-18.4-0.5-25.4c-0.2-3.3-0.3-5.9-0.5-7.8c-0.3-2.4-0.5-4.6-2.6-4.6c-0.8,0-1.5,0-6.4,4.8
				c-3,2.9-6.5,6.6-9.9,10.4L311,355.8l-12.5-13.4l-13.8-15c-0.4-0.4-0.9-0.6-1.5-0.6c-0.2,0-0.5,0-0.7,0.1c-0.8,0.3-1.3,1-1.3,1.8
				l-0.6,28.9l-0.4,19l-7.7-19.3c-3-7.6-5.9-14.7-8.3-20.2c-1.1-2.6-2.1-4.7-2.8-6.2c-1-2.1-1.6-3.4-3.1-3.4c-1.5,0-2.2,1.3-3.3,3.5
				c-0.8,1.6-1.8,3.8-3.1,6.6c-2.5,5.7-5.7,13.4-8.9,21.6c-5.8,14.5-10.3,24.9-12.2,28.8c-1.6-2-4.4-6.4-7.8-12.7l-8.1-14.7
				l7.9-14.3c0.9-1.5,8.7-15.3,8.7-17.5c0-0.9,0-3.6-9-3.6c-7.5,0-9.5,2.2-16.1,13.5l-3.8,6.8l-0.3-5.2c-0.3-6.3-0.5-9.4-1.7-11.5
				c-1.5-2.6-4-2.8-7.3-3.2l-6.8-0.7C186.5,325.2,186.4,325.2,186.4,325.2L186.4,325.2z M260.3,395.5v-2.7c0-7-0.9-10.3-6.3-13
				c-3.2-1.6-3.7-2.1-3.7-3.2c-0.1-2,1.5-5.8,4.1-11.9l1.4-3.3l0.1,1.3c0.4,6.6,1.5,11.1,6.1,13.7c1.4,0.9,2.8,1.7,3.7,2.2
				c0,0,0.1,0.1,0.1,0.1c-0.4,1.7-1.5,5.5-3.3,10.3L260.3,395.5L260.3,395.5z"/>
		</g>
		<g>
			<path class="st0" d="M344.7,402.5c-0.2,0-0.5-0.1-0.7-0.3c-0.2-0.2-0.3-0.5-0.3-0.7v-74.3c0-0.3,0.1-0.6,0.3-0.7
				c0.2-0.2,0.4-0.3,0.7-0.3c0,0,0.1,0,0.1,0l6.8,0.7l6.6,0.7c0.5,0.1,0.9,0.5,0.9,1v71.6c0,0.5-0.4,0.9-0.9,1l-6.6,0.7L344.7,402.5
				C344.8,402.5,344.7,402.5,344.7,402.5z"/>
			<path class="st1" d="M344.7,327.2l6.8,0.7l6.6,0.7v35.8v35.8l-6.6,0.7l-6.8,0.7v-37.2V327.2 M344.7,325.2c-0.5,0-1,0.2-1.3,0.5
				c-0.4,0.4-0.7,0.9-0.7,1.5v37.2v37.2c0,0.6,0.2,1.1,0.7,1.5c0.4,0.3,0.8,0.5,1.3,0.5c0.1,0,0.1,0,0.2,0l6.8-0.7l6.6-0.7
				c1-0.1,1.8-1,1.8-2v-35.8v-35.8c0-1-0.8-1.9-1.8-2l-6.6-0.7l-6.8-0.7C344.8,325.2,344.8,325.2,344.7,325.2L344.7,325.2z"/>
		</g>
	</g>
</g>
<g id="MasterLayer_1" class="st2">
</g>
</svg>
