<?xml version="1.0" encoding="utf-8"?>
<!-- Generator: Adobe Illustrator 23.0.1, SVG Export Plug-In . SVG Version: 6.00 Build 0)  -->
<svg version="1.1" id="Layer_1" xmlns="http://www.w3.org/2000/svg" xmlns:xlink="http://www.w3.org/1999/xlink" x="0px" y="0px"
	 viewBox="0 0 166 83" style="enable-background:new 0 0 166 83;" xml:space="preserve">
<style type="text/css">
	.st0{fill-rule:evenodd;clip-rule:evenodd;fill:#D85050;}
	.st1{fill:#FFFFFF;}
</style>
<title>mizuno-logo</title>
<g>
	<path class="st0" d="M71.7,54.5c-0.4,0-0.8-0.3-1-0.7C65.6,36,47.4,28.9,39.9,26.6c-10.9-3.3-29.2-6.7-29.4-6.8
		c-0.5-0.1-0.8-0.5-0.8-0.9c0-0.5,0.3-0.9,0.7-1L67.6,3c0.1,0,0.2,0,0.3,0c0.4,0,0.8,0.2,0.9,0.6c0.2,0.5,0,1-0.4,1.2
		C57.1,11.7,56.6,15.1,57,16.3c0.6,2.2,5.6,3.6,13.3,3.6c1.9,0,4-0.1,6.1-0.2c0.1,0,0.2,0,0.2,0c8.5-0.7,17-2,25.2-3.9
		c21.3-4.5,55.4-14,55.8-14.1c0.1,0,0.2,0,0.3,0c0.3,0,0.6,0.1,0.8,0.4c0.3,0.3,0.3,0.8,0.1,1.1l-4.2,7.4c-0.1,0.2-0.4,0.4-0.6,0.5
		l-21.9,5.4c-0.8,0.2-1.9,0.5-3,0.8c-12.5,3.3-41.7,11.1-41.7,36.4c0,0.6-0.4,1-1,1H71.7z M77.1,37.8l5.1-7.6l-5.3,0.5l-5.6,0.5
		L77.1,37.8z"/>
	<path class="st1" d="M157.9,2.4L157.9,2.4 M157.9,2.4l-4.2,7.4l-21.9,5.4c-10.7,3.1-45.5,9.9-45.5,38.2H71.7
		C67,37.2,51.3,29,40.2,25.7c-11.1-3.3-29.5-6.8-29.5-6.8L67.9,4c-18.6,11.3-13.8,16.9,2.4,16.9c2,0,4.2-0.1,6.5-0.3l0,0
		c8.5-0.7,17-2,25.4-4C123.6,12,157.9,2.4,157.9,2.4 M77.2,39.4l7-10.4l-7.4,0.7l-7.5,0.7l7.5,8.5L77.2,39.4 M157.9,0.4
		c0,0-0.1,0-0.1,0c-0.1,0-0.3,0-0.4,0.1c-1.4,0.4-34.8,9.7-55.6,14.1c-8.3,1.9-16.7,3.3-25.1,3.9c-0.1,0-0.2,0-0.3,0.1
		c-2.1,0.1-4.1,0.2-6,0.2c-9.1,0-12-1.8-12.3-2.8c-0.1-0.3-0.5-3.3,11-10.3c0.8-0.5,1.2-1.6,0.8-2.5C69.4,2.4,68.7,2,67.9,2
		c-0.2,0-0.3,0-0.5,0.1L10.2,16.9c-0.9,0.2-1.5,1.1-1.5,2c0,0.9,0.7,1.7,1.6,1.9c0.2,0,18.4,3.5,29.3,6.7C47,29.8,64.8,36.8,69.7,54
		c0.2,0.9,1,1.4,1.9,1.4h14.7c1.1,0,2-0.9,2-2c0-10.4,5.2-19,15.4-25.4c8.7-5.5,19.3-8.3,25.6-10c1.2-0.3,2.2-0.6,3.1-0.8l21.8-5.4
		c0.5-0.1,1-0.5,1.3-1l4.2-7.4c0.2-0.3,0.3-0.7,0.3-1.1C159.9,1.3,159.1,0.4,157.9,0.4C158,0.4,157.9,0.4,157.9,0.4L157.9,0.4z
		 M157.9,4.4L157.9,4.4L157.9,4.4L157.9,4.4z M73.3,32l3.6-0.3l3.2-0.3L77,36.1L73.3,32L73.3,32z"/>
</g>
<g>
	<path class="st0" d="M150.1,81.4c-1.9,0-3.3-1.5-3.4-3.4c0-0.1,0-0.2,0-0.3c-0.1-1.9,1.4-3.5,3.3-3.6l0.2,0c2,0,3.5,1.7,3.5,3.6
		c0.1,1.9-1.4,3.6-3.3,3.6l-0.1,0l-0.1-1V81.4z M41.9,81.3c-0.4,0-0.7-0.2-0.9-0.6c-0.2-0.3-0.1-0.8,0.1-1.1l14.7-19.1h-1.5
		c-0.2,0-0.3,0-0.5,0c-0.1,0-0.3,0-0.4,0c-0.5,0-1.3,0-2.9,2.2l-14,18.1c-0.2,0.2-0.5,0.4-0.8,0.4H25.1c-0.4,0-0.7-0.2-0.9-0.6
		c-0.2-0.3-0.1-0.7,0.1-1l14.5-19.1h-1.5c-0.2,0-0.3,0-0.5,0c-0.1,0-0.3,0-0.4,0c-0.6,0-1.3,0-2.9,2.2l-14,18.1
		c-0.2,0.2-0.5,0.4-0.8,0.4H7.9c-0.4,0-0.7-0.2-0.9-0.6c-0.2-0.3-0.1-0.7,0.1-1L25,56.2c2.3-3.1,5-4.7,8.2-4.7h7.5c0.6,0,1,0.4,1,1
		v4.1l0.4-0.5c2.3-3.1,5-4.6,8.2-4.6h7.6c0.6,0,1,0.4,1,1v23.2c0,0.1,0,0.2,0,0.3c-0.1,2.9-2.4,5.2-5.2,5.2
		C53.6,81.3,41.9,81.3,41.9,81.3z M128.8,81.3c-2.5,0-4.5-2-4.6-4.5c0,0,0-0.1,0-0.1V63.3c0.1-2.6,2.1-4.7,4.6-4.7
		c0,0,12.9,0,12.9,0l0.2,0c2.5,0,4.5,2,4.6,4.6c0,0,0,13.5,0,13.5c-0.1,2.6-2.1,4.7-4.6,4.7c0,0-12.8,0-12.8,0L128.8,81.3z
		 M133.7,65c-0.1,0-0.4,0-0.4,1v7.9c0,0.5,0.1,1,0.4,1l1.6,0h1.6c0.3,0,0.4-0.3,0.4-1V66c0-1-0.3-1-0.4-1H133.7z M105.7,81.3
		l-12.5,0c-2.3,0-4.3-1.8-4.6-4.1v3.1c0,0.6-0.4,1-1,1H70.8c-0.6,0-1-0.4-1-1V76c0-1.3,0.5-2.5,1.4-3.3l6.1-7.7h-6.8
		c-0.6,0-1-0.4-1-1v-4.3c0-0.6,0.4-1,1-1h16.8c0.6,0,1,0.4,1,1v4.3c0,1.2-0.5,2.5-1.4,3.3l-6,7.7h6.7c0.5,0,0.8,0.3,1,0.7V59.6
		c0-0.6,0.4-1,1-1h7.1c0.6,0,1,0.4,1,1v14.3c0,0.7,0.1,1,0.4,1h2.7c0.4-0.1,0.6-0.5,0.6-0.9c0,0,0-0.1,0-0.1V59.6c0-0.6,0.4-1,1-1
		l16.4,0c2.5,0,4.5,2,4.6,4.6v17c0,0.6-0.4,1-1,1h-7.1c-0.6,0-1-0.4-1-1V66c0-1-0.3-1-0.4-1h-2.7c-0.4,0.1-0.6,0.5-0.6,0.9
		c0,0,0,0.1,0,0.1c0,0,0,10.7,0,10.7c-0.1,2.6-2.1,4.6-4.6,4.6L105.7,81.3z M61.1,81.3c-0.6,0-1-0.4-1-1V59.6c0-0.6,0.4-1,1-1h7.1
		c0.6,0,1,0.4,1,1v17c-0.1,2.6-2.1,4.7-4.6,4.7C64.6,81.3,61.1,81.3,61.1,81.3z"/>
	<path class="st1" d="M57.8,52.5v23.2c0,0.1,0,0.2,0,0.3c-0.1,2.4-1.9,4.2-4.2,4.2c0,0-0.1,0-0.1,0H41.9l16-20.7h-3.6
		c-0.3,0-0.6,0-0.9,0c-1,0-2,0.3-3.7,2.6l-14,18.1H25.1l15.7-20.7h-3.6c-0.3,0-0.6,0-0.9,0c-1,0-2,0.3-3.7,2.6l-14,18.1H7.9
		l17.9-23.5c1.8-2.4,4.1-4.3,7.4-4.3h7.5v7l2.2-2.8c1.8-2.4,4-4.3,7.4-4.3H57.8 M87.3,59.6v4.3c0,1-0.4,2-1.1,2.7L78.9,76h0h8.8v4.3
		H70.8V76c0-1,0.4-2,1.1-2.7l7.4-9.4h-8.9v-4.3H87.3 M128.8,59.6C128.8,59.6,128.9,59.6,128.8,59.6c0.1,0,0.1,0,0.2,0h6.3h6.4
		c0.1,0,0.1,0,0.2,0c1.9,0,3.5,1.6,3.6,3.6c0,0,0,0,0,0.1v13.4c0,2-1.7,3.7-3.6,3.7c0,0-0.1,0-0.1,0c0,0,0,0-0.1,0H129
		c-0.1,0-0.1,0-0.2,0c-1.9,0-3.5-1.6-3.6-3.6c0,0,0-0.1,0-0.1V63.3C125.2,61.2,126.8,59.6,128.8,59.6 M135.3,75.9h1.6
		c0.9,0,1.4-0.7,1.4-2V66c0-1.4-0.6-2-1.4-2h-3.2c-0.9,0-1.4,0.6-1.4,2v7.9c0,1.3,0.6,2,1.4,2L135.3,75.9 M118.8,59.6
		c2,0,3.6,1.6,3.6,3.7v17h-7.1V66c0-1.4-0.5-2-1.4-2h-2.8c-0.9,0.1-1.6,1-1.5,2v10.6c0,0,0,0,0,0.1c-0.1,2-1.7,3.6-3.6,3.6
		c-0.1,0-0.1,0-0.2,0H93.4c0,0,0,0-0.1,0c0,0-0.1,0-0.1,0c-2,0-3.6-1.6-3.6-3.7v-17h7.1v14.3c0,1.3,0.5,2,1.4,2h2.8
		c0.9-0.1,1.6-1,1.5-2V59.6h16.2h0C118.7,59.6,118.7,59.6,118.8,59.6C118.7,59.6,118.8,59.6,118.8,59.6 M68.2,59.6v17
		c0,2-1.7,3.7-3.6,3.7c0,0-0.1,0-0.1,0c0,0,0,0-0.1,0h0h-3.3V59.6H68.2 M150.2,75.2C150.2,75.2,150.2,75.2,150.2,75.2L150.2,75.2
		c1.4,0,2.5,1.2,2.5,2.6c0,0,0,0,0,0c0,1.4-1,2.6-2.3,2.6c0,0-0.1,0-0.1,0c0,0,0,0,0,0h-0.1c0,0,0,0-0.1,0c-1.3,0-2.4-1.1-2.4-2.4
		c0-0.1,0-0.1,0-0.2c-0.1-1.4,1-2.6,2.3-2.7C150.1,75.2,150.2,75.2,150.2,75.2 M150.2,79.8C150.2,79.8,150.2,79.8,150.2,79.8
		L150.2,79.8c0.1,0,0.1,0,0.1,0c1-0.1,1.7-1,1.7-2c0,0,0,0,0,0c0-1-0.7-1.9-1.7-2h-0.1c0,0,0,0,0,0c0,0-0.1,0-0.1,0
		c-1,0.1-1.7,1-1.7,2c0,0,0,0.1,0,0.1C148.4,79,149.2,79.8,150.2,79.8 M150.3,76.4L150.3,76.4c0.7,0,1.1,0.2,1.1,0.9
		c0,0.4-0.2,0.7-0.6,0.8c0,0,0,0-0.1,0c0,0,0,0,0,0l0.7,1.2h-0.7l-0.4-0.8l-0.2-0.4h-0.3v1.2h-0.6v-2.8H150.3 M149.8,77.5h0.5
		c0.2,0,0.4-0.1,0.4-0.4c0-0.3-0.2-0.3-0.4-0.3c0,0,0,0,0,0h-0.4V77.5 M57.8,50.5h-7.6c-2.9,0-5.3,1.1-7.5,3.4v-1.3c0-1.1-0.9-2-2-2
		h-7.5c-3.5,0-6.5,1.7-9,5.1L6.3,79.1c-0.5,0.6-0.5,1.4-0.2,2.1c0.3,0.7,1,1.1,1.8,1.1h10.7c0.6,0,1.2-0.3,1.6-0.8l14-18.1
		c0,0,0,0,0.1-0.1c1.2-1.8,1.7-1.8,2-1.8c0.1,0,0.2,0,0.4,0c0,0,0.1,0,0.1,0L23.5,79.1c-0.5,0.6-0.5,1.4-0.2,2.1
		c0.3,0.7,1,1.1,1.8,1.1h10.6c0.6,0,1.2-0.3,1.6-0.8l14-18.1c0,0,0,0,0-0.1c1.3-1.8,1.8-1.8,2.1-1.8c0.1,0,0.2,0,0.4,0c0,0,0,0,0,0
		L40.3,79.1c-0.5,0.6-0.5,1.4-0.2,2.1c0.3,0.7,1,1.1,1.8,1.1h11.6c0.1,0,0.1,0,0.2,0c2.4,0,4.4-1.3,5.4-3.3v1.3c0,1.1,0.9,2,2,2h3.3
		l0.1,0l0.1,0c1.7,0,3.2-0.8,4.3-2v0c0,1.1,0.9,2,2,2h16.8c0.9,0,1.7-0.6,1.9-1.4c1,0.9,2.3,1.4,3.7,1.4l0.1,0l0,0h12.4
		c0.1,0,0.1,0,0.2,0c3,0,5.5-2.4,5.6-5.5l0-0.1l0-10.7c0,0,0,0,0,0h1.8c0,0,0,0,0,0v14.3c0,1.1,0.9,2,2,2h7.1c1.1,0,2-0.9,2-2v-0.1
		c1,1.3,2.6,2.1,4.4,2.1c0.1,0,0.1,0,0.2,0h12.6l0.1,0l0.1,0c1.8,0,3.4-0.9,4.5-2.3c0.7,1.4,2.2,2.4,3.9,2.4l0.1,0l0,0c0,0,0,0,0,0
		c0.1,0,0.1,0,0.2,0c2.4-0.1,4.3-2.1,4.3-4.6c0,0,0,0,0,0c0-2.5-1.9-4.6-4.4-4.6c0,0,0,0,0,0h-0.1c-0.1,0-0.1,0-0.2,0
		c-1,0-1.8,0.4-2.6,1l0-10.9c0,0,0,0,0-0.1l0-0.1c-0.1-3.1-2.6-5.5-5.6-5.5c-0.1,0-0.1,0-0.2,0h-6.3H129l0,0l-0.2,0
		c-2.2,0-4.1,1.3-5,3.1c-0.9-1.9-2.8-3.1-5-3.1l-0.2,0l0,0h-16.2c-1.1,0-2,0.9-2,2v14.3c0,0,0,0,0,0h-1.8c0,0,0,0,0,0V59.6
		c0-1.1-0.9-2-2-2h-7.1c-0.4,0-0.8,0.1-1.1,0.4c-0.3-0.2-0.7-0.4-1.2-0.4H70.5c-0.4,0-0.8,0.1-1.2,0.4c-0.3-0.2-0.7-0.4-1.1-0.4
		h-7.1c-0.5,0-0.9,0.2-1.3,0.4v-5.5C59.8,51.4,58.9,50.5,57.8,50.5L57.8,50.5z M70.2,72.3l0-6.4c0.1,0,0.2,0,0.3,0h4.7L70.5,72
		C70.4,72.1,70.3,72.2,70.2,72.3L70.2,72.3z M134.3,66h2c0,0,0,0,0,0v7.9c0,0,0,0,0,0h-1l-1,0c0,0,0,0,0,0L134.3,66
		C134.3,66,134.3,66,134.3,66L134.3,66z M83,74l4.6-5.9V74H83L83,74z"/>
</g>
</svg>
