<?xml version="1.0" encoding="utf-8"?>
<!-- Generator: Adobe Illustrator 23.0.1, SVG Export Plug-In . SVG Version: 6.00 Build 0)  -->
<svg version="1.1" id="Layer_1" xmlns="http://www.w3.org/2000/svg" xmlns:xlink="http://www.w3.org/1999/xlink" x="0px" y="0px"
	 viewBox="0 0 166 83" style="enable-background:new 0 0 166 83;" xml:space="preserve">
<style type="text/css">
	.st0{display:none;}
	.st1{display:inline;fill:#D85050;}
	.st2{display:inline;fill:#FFFFFF;}
	.st3{fill:#D85050;}
	.st4{fill:#FFFFFF;}
</style>
<title>newbalance-logo</title>
<g class="st0">
	<path class="st1" d="M135.4,75.9c0,0-0.1,0-0.1-0.1c0,0,0-0.1,0-0.1c0,0,0.1-0.1,0.1-0.1c0,0,0,0,0.1,0c0.1,0,0.1,0.1,0.1,0.1
		C135.5,75.8,135.5,75.9,135.4,75.9L135.4,75.9z"/>
	<path class="st2" d="M135.4,75.7C135.4,75.7,135.4,75.8,135.4,75.7L135.4,75.7L135.4,75.7 M135.4,75.5c-0.1,0-0.1,0-0.2,0.1l0,0
		c-0.1,0.1-0.1,0.2,0,0.3c0,0.1,0.1,0.1,0.2,0.1c0.1,0,0.2,0,0.2-0.1c0.1-0.1,0-0.3-0.1-0.4C135.5,75.5,135.5,75.5,135.4,75.5
		L135.4,75.5z"/>
</g>
<g class="st0">
	<path class="st1" d="M156.7,79.7c0,0-0.1,0-0.1-0.1l-0.5-0.9h-0.2v0.8c0,0.1-0.1,0.1-0.1,0.1h-0.3c-0.1,0-0.1-0.1-0.1-0.1v-2.1
		c0-0.1,0.1-0.1,0.1-0.1h0.8c0.7,0,0.9,0.4,0.9,0.7c0,0.3-0.2,0.6-0.5,0.7l0.5,0.8c0,0,0,0.1,0,0.1c0,0-0.1,0.1-0.1,0.1H156.7z
		 M156.1,78.2c0.4,0,0.4-0.1,0.4-0.2c0-0.1,0-0.2-0.4-0.2h-0.3v0.4H156.1z"/>
	<path class="st2" d="M156.2,77.4c0.5,0,0.8,0.2,0.8,0.6s-0.2,0.5-0.6,0.6l0.6,0.9h-0.4l-0.6-0.9h-0.4v0.9h-0.3v-2.1H156.2
		 M155.8,78.4h0.4c0.4,0,0.5-0.1,0.5-0.3c0-0.2-0.1-0.3-0.5-0.3h-0.4V78.4 M156.2,77.2h-0.8c-0.1,0-0.3,0.1-0.3,0.3v2.1
		c0,0.1,0.1,0.3,0.3,0.3h0.3c0.1,0,0.3-0.1,0.3-0.3v-0.6l0.5,0.8c0,0.1,0.1,0.1,0.2,0.1h0.4c0.1,0,0.2,0,0.2-0.1s0-0.2,0-0.3
		l-0.4-0.7c0.3-0.2,0.4-0.5,0.4-0.7C157.2,77.7,157.1,77.2,156.2,77.2L156.2,77.2z M156,78h0.2c0.1,0,0.2,0,0.2,0c0,0,0,0,0,0
		c0,0-0.1,0.1-0.3,0.1H156V78L156,78z"/>
</g>
<g>
	<g>
		<path class="st3" d="M111.7,80.5c0,0-0.1,0-0.1,0c-0.2-0.1-0.4-0.2-0.4-0.5V66.8c0-0.3,0.2-0.5,0.5-0.5h3.1c0.3,0,0.5,0.2,0.5,0.5
			v0c0.9-0.7,2.1-1,3.2-1c1.7,0,3.3,0.8,4.5,2c1.4,1.6,1.4,3.9,1.4,5V80c0,0.3-0.2,0.5-0.5,0.5h-3.3c-0.3,0-0.5-0.2-0.5-0.5v-6.6
			c0-1.8-0.3-3.8-2.3-3.8c-0.7,0-1.4,0.4-1.8,1c-0.5,0.7-0.5,2-0.5,3V80c0,0.3-0.2,0.5-0.5,0.5h-3.2
			C111.8,80.5,111.7,80.5,111.7,80.5z"/>
		<path class="st4" d="M118.5,66.3C118.5,66.3,118.5,66.3,118.5,66.3c1.6,0,3.1,0.7,4.1,1.9c1.3,1.4,1.3,3.7,1.3,4.7V80h-3.3v-6.6
			c0-1.1,0-4.3-2.8-4.3c-0.9,0-1.7,0.4-2.2,1.2c-0.6,0.8-0.6,2.2-0.6,3.3V80h-3.3l0,0V66.8h3.1v1.1
			C115.7,66.8,117.1,66.3,118.5,66.3 M118.5,65.3c-1.1,0-2.1,0.3-3,0.8c-0.2-0.2-0.4-0.3-0.7-0.3h-3.1c-0.6,0-1,0.4-1,1v13.3
			c0,0.4,0.3,0.8,0.7,0.9c0.1,0,0.2,0.1,0.3,0.1c0.1,0,0.2,0,0.3,0h3c0.6,0,1-0.4,1-1v-6.3c0-0.9,0-2.2,0.4-2.7
			c0.3-0.5,0.9-0.7,1.4-0.8c0.8,0,1.7,0.4,1.7,3.3V80c0,0.6,0.4,1,1,1h3.3c0.6,0,1-0.4,1-1v-7.2c0-1.1,0-3.6-1.5-5.4
			C122.1,66.1,120.3,65.3,118.5,65.3C118.5,65.3,118.5,65.3,118.5,65.3L118.5,65.3z"/>
	</g>
	<g>
		<path class="st3" d="M132.2,81c-3.7,0-7.7-2.9-7.7-7.6c0-4.2,3.5-7.5,7.7-7.5l0.1,0c3.2,0,6.1,2.1,7.2,5.2c0.1,0.2,0,0.3-0.1,0.5
			c-0.1,0.1-0.2,0.2-0.4,0.2h-3.7c-0.2,0-0.4-0.1-0.5-0.3c-0.5-1-1.5-1.7-2.6-1.7l-0.4,0c-1.8,0.1-3.3,1.7-3.2,3.6l0,0.2
			c0.1,1.9,1.6,3.5,3.5,3.5l0.1,0c1.1,0,2-0.6,2.6-1.6c0.1-0.2,0.3-0.3,0.4-0.3h3.7c0.2,0,0.3,0.1,0.4,0.2c0.1,0.1,0.1,0.3,0.1,0.5
			c-1.1,3.1-3.9,5.1-7.1,5.1L132.2,81z"/>
		<path class="st4" d="M132.4,66.3c3,0,5.7,1.9,6.7,4.9h-3.7c-0.6-1.2-1.7-1.9-3-1.9c0,0-0.1,0-0.1,0c0,0-0.1,0-0.1,0
			c-0.1,0-0.1,0-0.2,0c-2.1,0.1-3.8,2-3.7,4.2c0,0.1,0,0.1,0,0.2c0.1,2.2,1.8,4,4,4c0.1,0,0.1,0,0.2,0c1.2,0,2.4-0.7,3-1.8h3.7
			c-1,2.9-3.7,4.8-6.6,4.8c-0.1,0-0.1,0-0.2,0c-3.5,0-7.2-2.7-7.2-7.1c0-4.1,3.5-7,7.2-7C132.3,66.3,132.4,66.3,132.4,66.3
			 M132.4,65.3C132.4,65.3,132.4,65.3,132.4,65.3l-0.2,0c-4.5,0-8.2,3.6-8.2,8c0,5,4.3,8.1,8.2,8.1c0.1,0,0.1,0,0.2,0
			c3.4,0,6.4-2.2,7.6-5.4c0.1-0.3,0.1-0.6-0.1-0.9c-0.2-0.3-0.5-0.4-0.8-0.4h-3.7c-0.4,0-0.7,0.2-0.9,0.5c-0.4,0.8-1.3,1.3-2.1,1.3
			l-0.1,0c-1.6,0-2.9-1.3-3-3c0-0.1,0-0.1,0-0.2c0,0,0,0,0-0.1c-0.1-1.7,1.2-3.1,2.7-3.1c0,0,0.1,0,0.1,0l0.1,0c0,0,0,0,0,0
			c0,0,0,0,0,0l0.1,0c0.9,0,1.7,0.5,2.1,1.4c0.2,0.3,0.5,0.6,0.9,0.6h3.7c0.3,0,0.6-0.2,0.8-0.4c0.2-0.3,0.2-0.6,0.1-0.9
			C138.9,67.6,135.8,65.3,132.4,65.3L132.4,65.3z"/>
	</g>
	<g>
		<path class="st3" d="M91.3,80.5c-0.3,0-0.5-0.2-0.5-0.5V62.3c0-0.3,0.2-0.5,0.5-0.5h3.3c0.3,0,0.5,0.2,0.5,0.5V80
			c0,0.3-0.2,0.5-0.5,0.5H91.3z"/>
		<path class="st4" d="M94.6,62.3V80h-3.3V62.3H94.6 M94.6,61.3h-3.3c-0.6,0-1,0.4-1,1V80c0,0.6,0.4,1,1,1h3.3c0.6,0,1-0.4,1-1V62.3
			C95.6,61.7,95.2,61.3,94.6,61.3L94.6,61.3z"/>
	</g>
	<g>
		<path class="st3" d="M102.2,81c-3.9,0-7-3.3-7.1-7.3c0-0.1,0-0.3,0-0.4c-0.1-4.1,3.1-7.5,7.1-7.5l0.3,0c1.5,0,2.9,0.5,4,1.4v-0.4
			c0-0.3,0.2-0.5,0.5-0.5h3c0.3,0,0.5,0.2,0.5,0.5l0,13.3c0,0.1-0.1,0.3-0.1,0.4c-0.1,0.1-0.2,0.1-0.4,0.1h-3
			c-0.3,0-0.5-0.2-0.5-0.5v-0.5C105.3,80.4,103.8,80.9,102.2,81C102.2,81,102.2,81,102.2,81z M102.8,69.7c-1.9,0-3.5,1.6-3.5,3.6
			l0,0.1c0,2,1.5,3.6,3.4,3.6c0,0,0.1,0,0.1,0c1.9,0,3.4-1.5,3.5-3.4c0-0.1,0-0.2,0-0.2c0.1-2-1.4-3.6-3.2-3.7
			C103.2,69.7,102.9,69.7,102.8,69.7z"/>
		<path class="st4" d="M102.3,66.3c0.1,0,0.1,0,0.2,0c0,0,0,0,0,0c1.7,0,3.4,0.8,4.5,2.1v-1.6h3l0,13.3h-3v-1.7
			c-1.3,1.3-3,2.1-4.8,2.1c0,0,0,0-0.1,0c-3.6,0-6.6-3-6.6-6.8c0-0.1,0-0.3,0-0.4C95.5,69.5,98.5,66.3,102.3,66.3
			C102.2,66.3,102.2,66.3,102.3,66.3 M102.9,69.2C102.9,69.2,102.9,69.2,102.9,69.2c-2.2,0-4,1.8-4.1,4.1c0,0.1,0,0.1,0,0.2
			c0,2.3,1.8,4.1,3.9,4.1c0,0,0,0,0,0c0,0,0.1,0,0.1,0c0,0,0.1,0,0.1,0c2.1,0,3.8-1.7,3.9-3.9c0-0.1,0-0.2,0-0.3
			c0.1-2.2-1.6-4.1-3.7-4.1c0,0-0.1,0-0.1,0C103,69.2,103,69.2,102.9,69.2 M102.3,65.3l-0.1,0c-4.2,0.1-7.6,3.7-7.6,8
			c0,0.1,0,0.3,0,0.4c0,4.3,3.4,7.8,7.6,7.8l0.1,0c1.4,0,2.7-0.4,3.8-1.1c0.1,0.4,0.5,0.7,0.9,0.7h3c0.3,0,0.5-0.1,0.7-0.3
			s0.3-0.4,0.3-0.7l0-13.3c0-0.6-0.4-1-1-1h-3c-0.4,0-0.7,0.2-0.9,0.5c-1.1-0.7-2.3-1-3.6-1C102.4,65.3,102.3,65.3,102.3,65.3
			L102.3,65.3z M102.9,70.2C102.9,70.2,102.9,70.2,102.9,70.2l0.1,0l0.1,0c1.6,0.1,2.8,1.5,2.8,3.1c0,0,0,0,0,0.1c0,0.1,0,0.1,0,0.2
			c0,1.7-1.3,2.9-2.9,2.9l-0.1,0c0,0,0,0,0,0c0,0,0,0,0,0l-0.1,0c-1.6,0-3-1.4-3-3.1l0-0.1C99.9,71.6,101.2,70.2,102.9,70.2
			C102.9,70.2,102.9,70.2,102.9,70.2L102.9,70.2z"/>
	</g>
	<g>
		<path class="st3" d="M27.9,81c-4,0-7.3-3.3-7.5-7.4c0,0,0-0.1,0-0.1c0.1-4.3,3.5-7.7,7.6-7.7l0.3,0c4.1,0,7.3,3.3,7.4,7.5
			c0,0.6-0.1,1.2-0.2,1.7c-0.1,0.2-0.3,0.4-0.5,0.4h-9.9c0.6,1.1,1.7,1.7,2.9,1.7c0,0,0.1,0,0.1,0c0.1,0,0.1,0,0.2,0
			c1,0,2-0.6,2.5-1.5c0.1-0.2,0.3-0.2,0.4-0.2h3.4c0.2,0,0.3,0.1,0.4,0.2s0.1,0.3,0.1,0.5c-1.1,3-3.9,4.9-7,4.9
			C28.1,81,28,81,27.9,81z M31.2,71.8c-0.4-1.3-1.6-2.1-2.9-2.1c0,0-0.2,0-0.2,0c-1.4,0-2.6,0.8-3.1,2.1H31.2z"/>
		<path class="st4" d="M28,66.2c0,0,0.1,0,0.1,0c0,0,0,0,0.1,0c0,0,0.1,0,0.1,0c3.7,0,6.8,3.1,6.9,7c0,0.5-0.1,1.1-0.2,1.6H24.4
			c0.5,1.6,2,2.7,3.7,2.7c0,0,0.1,0,0.1,0c0.1,0,0.2,0,0.2,0c1.2,0,2.3-0.6,2.9-1.7h3.4c-1.1,2.8-3.7,4.6-6.6,4.6c0,0,0,0,0,0
			c-0.1,0-0.2,0-0.3,0c-3.7,0-6.8-3.1-7-7c0,0,0-0.1,0-0.1C21,69.4,24.1,66.2,28,66.2 M28.1,69.2C28.1,69.2,28.1,69.2,28.1,69.2
			c-1.9,0-3.4,1.3-3.9,3.1h7.5c-0.3-1.8-1.8-3.1-3.6-3.1C28.2,69.2,28.2,69.2,28.1,69.2 M28,65.2L28,65.2c-4.4,0-8,3.7-8.1,8.2
			l0,0.1c0.2,4.4,3.7,7.9,8,7.9c0.1,0,0.2,0,0.3,0c0,0,0,0,0,0c3.3,0,6.3-2.1,7.5-5.3c0.1-0.2,0.1-0.4,0-0.7
			c0.1-0.1,0.3-0.3,0.3-0.5c0.1-0.6,0.2-1.2,0.2-1.8c-0.1-4.5-3.6-8-7.9-8l-0.1,0l0,0L28,65.2L28,65.2L28,65.2z M28.1,70.2
			C28.2,70.2,28.2,70.2,28.1,70.2l0.1,0c0.8,0,1.6,0.4,2.1,1.1h-4.5C26.4,70.6,27.2,70.2,28.1,70.2L28.1,70.2
			C28.1,70.2,28.1,70.2,28.1,70.2L28.1,70.2z M26.2,75.8h3.9c-0.4,0.5-1.1,0.7-1.7,0.7c-0.1,0-0.1,0-0.2,0c0,0,0,0-0.1,0
			c0,0,0,0,0,0l-0.1,0C27.3,76.6,26.7,76.3,26.2,75.8L26.2,75.8z"/>
	</g>
	<g>
		<path class="st3" d="M46.6,80.6c-0.2,0-0.4-0.1-0.5-0.4L44,73.1l-2.1,7.1c-0.1,0.2-0.3,0.4-0.5,0.4h-2c-0.2,0-0.4-0.1-0.5-0.3
			L34,66.9c-0.1-0.2,0-0.3,0.1-0.5c0.1-0.1,0.2-0.2,0.4-0.2H38c0.2,0,0.4,0.1,0.5,0.4l2,6.6l1.8-6.6c0.1-0.2,0.3-0.4,0.5-0.4h2.6
			c0.2,0,0.4,0.2,0.5,0.4l1.8,6.5l2-6.6c0.1-0.2,0.3-0.4,0.5-0.4h3.5c0.2,0,0.3,0.1,0.4,0.2c0.1,0.1,0.1,0.3,0.1,0.5l-5,13.3
			c-0.1,0.2-0.3,0.3-0.5,0.3H46.6z"/>
		<path class="st4" d="M53.6,66.8L53.6,66.8 M53.6,66.8l-5,13.3h-2L44,71.4h0l-2.6,8.6h-2l-4.9-13.3H38l2.5,8.1h0.1l2.2-8.1h2.6
			l2.2,8.1h0.1l2.5-8.1H53.6 M53.6,65.8L53.6,65.8h-3.5c-0.4,0-0.8,0.3-1,0.7l-1.5,4.9l-1.3-4.9c-0.1-0.4-0.5-0.7-1-0.7h-2.6
			c-0.4,0-0.8,0.3-1,0.7l-1.3,4.9l-1.5-4.9c-0.1-0.4-0.5-0.7-1-0.7h-3.5c-0.3,0-0.6,0.2-0.8,0.4c-0.2,0.3-0.2,0.6-0.1,0.9l4.9,13.3
			c0.1,0.4,0.5,0.7,0.9,0.7h2c0.4,0,0.8-0.3,1-0.7l1.6-5.5l1.6,5.5c0.1,0.4,0.5,0.7,1,0.7h2c0.4,0,0.8-0.3,0.9-0.6l5-13.2
			c0.1-0.1,0.1-0.3,0.1-0.4C54.6,66.2,54.2,65.8,53.6,65.8L53.6,65.8z M53.6,67.8L53.6,67.8L53.6,67.8L53.6,67.8z"/>
	</g>
	<g>
		<path class="st3" d="M16.8,80.6c-0.3,0-0.5-0.2-0.5-0.5v-6.6c0-1.8-0.3-3.8-2.3-3.8c-0.7,0-1.4,0.4-1.8,1c-0.5,0.7-0.5,2-0.5,3
			v6.3c0,0.3-0.2,0.5-0.5,0.5H8c-0.3,0-0.5-0.2-0.5-0.5V66.8c0-0.3,0.2-0.5,0.5-0.5h3c0.3,0,0.5,0.2,0.5,0.5v0.1
			c0.9-0.7,2.1-1,3.2-1c1.7,0,3.3,0.8,4.5,2c1.4,1.6,1.4,4,1.4,5v7.2c0,0.3-0.2,0.5-0.5,0.5H16.8z"/>
		<path class="st4" d="M14.8,66.3C14.8,66.3,14.8,66.3,14.8,66.3c1.6,0,3.1,0.7,4.1,1.9c1.3,1.5,1.3,3.7,1.3,4.7v7.2h-3.3v-6.6
			c0-1.1,0-4.3-2.8-4.3c-0.9,0-1.7,0.4-2.2,1.2c-0.6,0.8-0.6,2.2-0.6,3.3v6.3H8v0V66.8h3v1.1C12,66.9,13.4,66.3,14.8,66.3
			 M14.8,65.3c-1,0-2.1,0.3-3,0.8c-0.2-0.2-0.4-0.3-0.7-0.3H8c-0.6,0-1,0.4-1,1V80c0,0.6,0.4,1,1,1h3.2c0.6,0,1-0.4,1-1v-6.3
			c0-0.9,0-2.2,0.4-2.7c0.3-0.5,0.9-0.7,1.4-0.8c0.9,0,1.7,0.4,1.7,3.3v6.6c0,0.6,0.4,1,1,1h3.3c0.6,0,1-0.4,1-1v-7.2
			c0-1.1,0-3.6-1.5-5.3C18.4,66.1,16.6,65.3,14.8,65.3C14.8,65.3,14.8,65.3,14.8,65.3L14.8,65.3z"/>
	</g>
	<g>
		<path class="st3" d="M81.8,81c-3.9,0-7-3.3-7.1-7.3c0-0.1,0-0.3,0-0.4c-0.1-4.1,3.1-7.5,7.1-7.5l0.3,0c1.5,0,2.9,0.5,4.1,1.5v-0.5
			c0-0.3,0.2-0.5,0.5-0.5h3c0.3,0,0.5,0.2,0.5,0.5l0,13.3c0,0.1-0.1,0.3-0.1,0.4s-0.2,0.1-0.4,0.1h-3c-0.3,0-0.5-0.2-0.5-0.5v-0.5
			C84.9,80.4,83.4,80.9,81.8,81C81.8,81,81.8,81,81.8,81z M82.4,69.7c-1.9,0-3.5,1.6-3.5,3.6l0,0.1c0,2,1.6,3.6,3.4,3.6
			c0,0,0.1,0,0.1,0c1.9,0,3.4-1.5,3.5-3.4c0-0.1,0-0.2,0-0.2c0.1-2-1.4-3.6-3.3-3.7C82.7,69.7,82.5,69.7,82.4,69.7z"/>
		<path class="st4" d="M81.9,66.3c0.1,0,0.1,0,0.2,0c0,0,0,0,0,0c1.7,0,3.4,0.8,4.5,2.1h0v-1.6h3l0,13.3h-3v-1.7
			c-1.3,1.3-3,2-4.8,2.1c0,0,0,0-0.1,0c-3.6,0-6.6-3-6.6-6.8c0-0.1,0-0.3,0-0.4C75.1,69.5,78.1,66.3,81.9,66.3
			C81.8,66.3,81.8,66.3,81.9,66.3 M82.5,69.2C82.5,69.2,82.5,69.2,82.5,69.2c-2.2,0-4,1.8-4.1,4.1c0,0,0,0.1,0,0.1
			c0,2.3,1.8,4.1,3.9,4.1c0,0,0,0,0,0c0,0,0.1,0,0.1,0c0,0,0.1,0,0.1,0c2.1,0,3.8-1.7,3.9-3.9c0-0.1,0-0.2,0-0.3
			c0.1-2.2-1.6-4.1-3.7-4.1c0,0-0.1,0-0.1,0S82.5,69.2,82.5,69.2 M81.9,65.3l-0.1,0c-4.2,0.1-7.6,3.7-7.6,8c0,0.1,0,0.3,0,0.4
			c0,4.3,3.4,7.8,7.6,7.8l0.1,0c1.4,0,2.7-0.4,3.8-1.1c0.1,0.4,0.5,0.7,0.9,0.7h3c0.3,0,0.5-0.1,0.7-0.3c0.2-0.2,0.3-0.4,0.3-0.7
			l0-13.3c0-0.6-0.4-1-1-1h-3c-0.4,0-0.7,0.2-0.9,0.6c-1.1-0.7-2.3-1.1-3.6-1.1L81.9,65.3L81.9,65.3z M82.5,70.2
			C82.5,70.2,82.5,70.2,82.5,70.2l0.1,0l0.1,0c1.6,0.1,2.8,1.5,2.8,3.1c0,0,0,0,0,0.1c0,0.1,0,0.1,0,0.2c0,1.7-1.3,2.9-2.9,2.9
			l-0.1,0c0,0,0,0,0,0c0,0,0,0,0,0l-0.1,0c-1.6,0-3-1.4-3-3.1l0-0.1C79.5,71.6,80.8,70.2,82.5,70.2C82.5,70.2,82.5,70.2,82.5,70.2
			L82.5,70.2z"/>
	</g>
	<g>
		<path class="st3" d="M146.6,81c-4,0-7.3-3.3-7.5-7.4c0,0,0-0.1,0-0.1c0.1-4.3,3.4-7.7,7.5-7.7h0.3c4.1,0,7.3,3.3,7.4,7.5
			c0,0.6-0.1,1.2-0.2,1.7c-0.1,0.2-0.3,0.4-0.5,0.4h-9.8c0.6,1.1,1.7,1.7,2.9,1.7c0,0,0.1,0,0.2,0c0.1,0,0.1,0,0.2,0
			c1,0,1.9-0.6,2.5-1.5c0.1-0.2,0.3-0.2,0.4-0.2h3.5c0.2,0,0.3,0.1,0.4,0.2c0.1,0.1,0.1,0.3,0.1,0.5c-1.1,3-3.9,4.9-7,4.9
			C146.8,81,146.7,81,146.6,81z M149.9,71.8c-0.4-1.3-1.6-2.1-2.9-2.1l-0.1,0c-1.4,0-2.7,0.8-3.2,2.1H149.9z"/>
		<path class="st4" d="M146.7,66.3c0,0,0.1,0,0.1,0c0,0,0,0,0,0c0,0,0.1,0,0.1,0c3.8,0,6.8,3.1,6.9,7c0,0.5-0.1,1.1-0.2,1.6h-10.6
			c0.5,1.6,2,2.7,3.6,2.7c0,0,0.1,0,0.1,0c0.1,0,0.2,0,0.3,0c1.2,0,2.3-0.6,2.9-1.7h3.5c-1.1,2.8-3.7,4.6-6.6,4.6c0,0,0,0,0,0
			c-0.1,0-0.2,0-0.3,0c-3.7,0-6.8-3.1-7-7c0,0,0-0.1,0-0.1C139.7,69.5,142.8,66.3,146.7,66.3 M146.9,69.2
			C146.8,69.2,146.8,69.2,146.9,69.2c-1.9,0-3.4,1.3-3.9,3.1h0h0h7.5c-0.3-1.8-1.8-3.1-3.6-3.1C146.9,69.2,146.9,69.2,146.9,69.2
			 M146.7,65.3L146.7,65.3c-4.4,0-8,3.7-8.1,8.2l0,0.1c0.2,4.4,3.7,7.9,8,7.9c0.1,0,0.2,0,0.3,0c0,0,0,0,0,0c3.3,0,6.3-2.1,7.5-5.3
			c0.1-0.2,0.1-0.5,0-0.7c0.1-0.1,0.2-0.3,0.3-0.5c0.1-0.6,0.2-1.2,0.2-1.8c-0.1-4.5-3.6-8-7.9-8l-0.1,0L146.7,65.3L146.7,65.3
			L146.7,65.3z M146.8,70.2C146.9,70.2,146.9,70.2,146.8,70.2l0.1,0c0.8,0,1.6,0.4,2.1,1.1h-4.5C145.1,70.6,145.9,70.2,146.8,70.2
			C146.8,70.2,146.8,70.2,146.8,70.2L146.8,70.2z M144.9,75.9h3.9c-0.4,0.5-1,0.7-1.7,0.7c-0.1,0-0.1,0-0.2,0c0,0-0.1,0-0.1,0
			c0,0,0,0,0,0l-0.1,0C146,76.6,145.4,76.3,144.9,75.9L144.9,75.9z"/>
	</g>
	<g>
		<path class="st3" d="M67.2,81c-1.4,0-2.7-0.5-3.8-1.4V80c0,0.3-0.2,0.5-0.5,0.5h-3c-0.3,0-0.5-0.2-0.5-0.5V62.3
			c0-0.3,0.2-0.5,0.5-0.5h3.3c0.3,0,0.5,0.2,0.5,0.5v4.6c1.1-0.7,2.4-1.1,3.7-1.1h0.1c4,0,7.3,3.4,7.3,7.5c0,3-2,7.7-7.3,7.7
			C67.5,81,67.3,81,67.2,81L67.2,81z M67.2,77.1c1.8,0,3.3-1.5,3.3-3.4c0-0.1,0-0.2,0-0.3c0.1-2-1.4-3.6-3.3-3.7c0,0-0.2,0-0.2,0
			c-2,0-3.5,1.5-3.5,3.5c0,0.1,0,0.1,0,0.2c0,2,1.5,3.6,3.4,3.7c0,0,0.2,0,0.2,0C67.1,77.1,67.2,77.1,67.2,77.1z"/>
		<path class="st4" d="M63.2,62.3v5.6c1.2-1.1,2.6-1.7,4.2-1.7c0,0,0,0,0.1,0c0,0,0,0,0.1,0c3.7,0,6.8,3.1,6.8,7c0,0,0,0,0,0
			c0,2.7-1.8,7.1-6.8,7.1c-0.1,0-0.2,0-0.3,0c-1.6,0-3.2-0.7-4.3-2V80h-3V62.3H63.2 M67.1,69.2c0,0-0.1,0-0.1,0c-2.1,0-3.9,1.8-4,4
			c0,0,0,0,0,0l0,0c-0.1,2.3,1.6,4.2,3.9,4.3c0.1,0,0.1,0,0.2,0c0,0,0.1,0,0.1,0c0,0,0.1,0,0.1,0c2.1,0,3.8-1.7,3.8-3.9
			c0-0.1,0-0.3,0-0.4c0.1-2.2-1.6-4.1-3.8-4.1c0,0-0.1,0-0.1,0C67.1,69.2,67.1,69.2,67.1,69.2 M63.2,61.3h-3.3c-0.6,0-1,0.4-1,1V80
			c0,0.6,0.4,1,1,1h3c0.4,0,0.7-0.2,0.9-0.5c1,0.6,2.2,1,3.4,1c0.1,0,0.2,0,0.3,0c5.6,0,7.8-5,7.8-8.1c0-4.5-3.5-8-7.8-8l-0.1,0
			l-0.1,0c-1.1,0-2.2,0.3-3.2,0.8v-3.7C64.2,61.7,63.8,61.3,63.2,61.3L63.2,61.3z M67.1,70.2C67.1,70.2,67.1,70.2,67.1,70.2l0.1,0
			l0.1,0c1.6,0,2.8,1.4,2.8,3.1c0,0,0,0.1,0,0.1c0,0.1,0,0.2,0,0.3c-0.1,1.6-1.3,2.9-2.8,2.9l-0.1,0c0,0,0,0,0,0c0,0,0,0,0,0l-0.1,0
			l-0.1,0c-1.6-0.1-2.9-1.5-2.9-3.1c0-0.1,0-0.2,0-0.2h0c0.1-1.7,1.4-3,3-3L67.1,70.2C67,70.2,67,70.2,67.1,70.2L67.1,70.2z"/>
	</g>
</g>
<g class="st0">
	<path class="st1" d="M156.1,80.4c-1,0-1.9-0.8-1.9-1.9c-0.1-1.1,0.7-2.1,1.8-2.2c0.1,0,0.1,0,0.2,0c1,0,1.9,0.8,2,1.9
		c0.1,1.1-0.7,2.1-1.8,2.2C156.2,80.4,156.1,80.4,156.1,80.4z M156.1,77c-0.7,0-1.4,0.6-1.4,1.4c0,0.8,0.6,1.5,1.3,1.5l0.1,0.1v-0.1
		c0.7,0,1.3-0.6,1.3-1.3C157.6,77.7,157,77,156.1,77v-0.1V77z"/>
	<path class="st2" d="M156.1,76.4c1,0,1.8,0.8,1.9,1.8c0.1,1.1-0.7,2-1.7,2.1c0,0-0.1,0-0.1,0c0,0,0,0,0,0c0,0,0,0-0.1,0
		c-1,0-1.8-0.8-1.8-1.8c-0.1-1.1,0.7-2,1.7-2.1C156,76.4,156.1,76.4,156.1,76.4 M156.2,80c0.8,0,1.4-0.6,1.5-1.5c0,0,0,0,0-0.1
		c0-0.9-0.6-1.6-1.5-1.6c0,0,0,0-0.1,0c-0.8,0-1.5,0.7-1.5,1.5c0,0.9,0.6,1.6,1.5,1.6C156.1,80,156.1,80,156.2,80
		C156.2,80,156.2,80,156.2,80 M156.1,76.1c-0.1,0-0.1,0-0.2,0c-1.2,0.1-2,1.2-2,2.4c0,1.1,0.9,2,2.1,2l0.1,0c0,0,0,0,0,0
		c0,0,0.1,0,0.2,0c1.2-0.1,2-1.2,2-2.4C158.2,77,157.2,76.1,156.1,76.1L156.1,76.1z M156.2,79.7L156.2,79.7
		C156.1,79.7,156.1,79.7,156.2,79.7c-0.8,0-1.3-0.6-1.3-1.4c0-0.7,0.6-1.3,1.3-1.3c0.7,0,1.3,0.6,1.3,1.4l0.2,0.1l-0.2,0
		C157.4,79.2,156.8,79.7,156.2,79.7L156.2,79.7z"/>
</g>
<g>
	<g>
		<path class="st3" d="M68.6,54.2c-0.2,0-0.4-0.2-0.5-0.4l-1.7-6.6c0-0.1,0-0.3,0.1-0.4s0.2-0.2,0.4-0.2l18-1.2l0.1-0.1L66,44.2
			c-0.2,0-0.4-0.2-0.5-0.4L63.4,36c0-0.1,0-0.3,0.1-0.4c0.1-0.1,0.2-0.2,0.4-0.2l27.9-1.6l0.1-0.1L42,30.7c-0.2,0-0.3-0.1-0.4-0.3
			c-0.1-0.2-0.1-0.3,0-0.5l2.4-4c0.1-0.1,0.2-0.2,0.4-0.2l54.1-3.4l0.1-0.1l-15.1-1c-0.2,0-0.3-0.1-0.4-0.2c-0.1-0.1-0.1-0.3,0-0.4
			l0-0.1l5.1-8.7c0.1-0.1,0.2-0.2,0.4-0.2l16.9-1.1l0.1-0.1l-15.1-1c-0.2,0-0.3-0.1-0.4-0.3s-0.1-0.3,0-0.5l3.7-6.3
			C93.9,2.1,94,2,94.2,2h29.5c6.3,0,10.5,1.4,12.7,4.3c1.7,2.2,2,5.1,1,8.8c-0.4,1.5-3.1,9.1-13.9,12.7c1.4,0.5,3,1.4,4.2,3
			c1.3,1.7,1.8,3.8,1.4,6.2c-1.8,12-17.9,17.2-25.7,17.2H68.6z M100.2,41.8c2.5,0,7.1-1.3,8.5-4.7c0.5-1.3,0.5-2.4-0.1-3.3
			c-0.6-0.9-1.6-1.3-2.3-1.3h-5.5l-5.5,9.2H100.2z M111.3,21.8c2.7,0,6.4-1.1,7.7-4.2c0.5-1.3,0.5-2.5-0.1-3.4
			c-0.4-0.7-1.1-1.1-1.9-1.1h-4.6l-5.2,8.7H111.3z"/>
		<path class="st4" d="M123.7,2.5c9.1,0,15.8,3.2,13.2,12.4c-0.8,2.8-4.4,9.9-15.3,12.9c2.3,0.3,8,2.7,7,9.1
			c-1.7,11.3-16.8,16.7-25.2,16.7H68.6l-1.7-6.6l18.2-1.2l0.6-1L66,43.7l-2.1-7.8L92,34.3l0.6-1l-50.5-3.1l2.4-4l54.4-3.4l0.6-1
			l-15.9-1l0-0.1l5.1-8.6l17.2-1.1l0.6-1L90.5,8.8l3.7-6.3H123.7 M106.3,22.3h5c3.4,0,6.9-1.5,8.1-4.5c1.2-2.8-0.4-5.2-2.5-5.2h-4.9
			L106.3,22.3 M94.5,42.3h5.8c2.7,0,7.5-1.3,8.9-5c1.4-3.4-1.1-5.2-2.9-5.2h-5.7L94.5,42.3 M123.7,1.5H94.2c-0.4,0-0.7,0.2-0.9,0.5
			l-3.7,6.3c-0.2,0.3-0.2,0.7,0,1c0.2,0.3,0.5,0.5,0.8,0.5l8.3,0.6L88.6,11c-0.3,0-0.6,0.2-0.8,0.5l-5.1,8.6c0,0-0.1,0.1-0.1,0.1
			l0,0.1c-0.1,0.3-0.1,0.6,0.1,0.9c0.2,0.3,0.5,0.4,0.8,0.5l8,0.5l-47.1,3c-0.3,0-0.6,0.2-0.8,0.5l-2.4,4c-0.2,0.3-0.2,0.7,0,1
			c0.2,0.3,0.5,0.5,0.8,0.5l42.1,2.6l-20.3,1.2c-0.3,0-0.6,0.2-0.8,0.4c-0.2,0.2-0.2,0.6-0.2,0.8l2.1,7.8c0.1,0.4,0.5,0.7,0.9,0.7
			l11.9,0.7l-11,0.8c-0.3,0-0.6,0.2-0.7,0.4c-0.2,0.2-0.2,0.5-0.2,0.8l1.7,6.6c0.1,0.4,0.5,0.7,1,0.7h34.8c4.8,0,10.8-1.6,15.6-4.2
			c4.3-2.3,9.6-6.6,10.6-13.3c0.4-2.5-0.1-4.7-1.5-6.6c-0.9-1.2-2.1-2.1-3.3-2.7c10-3.8,12.6-11.1,13-12.6c1.1-3.8,0.7-6.9-1-9.2
			C134.5,3,130.1,1.5,123.7,1.5L123.7,1.5z M112.7,13.6h4.3c0.6,0,1.1,0.3,1.5,0.8c0.5,0.8,0.6,1.9,0.1,3c-1.2,2.9-4.6,3.9-7.2,3.9
			l-3.3,0L112.7,13.6L112.7,13.6z M101.1,33.1h5.2c0.6,0,1.4,0.3,1.9,1c0.5,0.7,0.5,1.7,0.1,2.8c-1.3,3.2-5.6,4.4-8,4.4h-4
			L101.1,33.1L101.1,33.1z"/>
	</g>
	<g>
		<path class="st3" d="M35.1,42.5c-0.2,0-0.3-0.1-0.4-0.3c-0.1-0.2-0.1-0.3,0-0.5l2.4-4.1c0.1-0.1,0.2-0.2,0.4-0.2
			c0,0,26.1-2,26.1-2c0.2,0,0.3,0.1,0.4,0.2c0.1,0.2,0.1,0.4,0,0.5l-4.4,7.4c-0.1,0.2-0.3,0.2-0.4,0.2
			C59.3,43.8,35.1,42.5,35.1,42.5z"/>
		<path class="st4" d="M63.7,35.9L63.7,35.9 M63.7,35.9l-4.4,7.4L35.1,42l2.4-4.1L63.7,35.9 M63.7,34.9
			C63.7,34.9,63.7,34.9,63.7,34.9C63.6,34.9,63.6,34.9,63.7,34.9l-26.2,2c-0.3,0-0.6,0.2-0.8,0.5l-2.4,4.1c-0.2,0.3-0.2,0.7,0,1
			c0.2,0.3,0.5,0.5,0.8,0.5l24.2,1.3c0,0,0,0,0.1,0c0.4,0,0.7-0.2,0.9-0.5l4.3-7.3c0.1-0.2,0.2-0.4,0.2-0.6
			C64.7,35.4,64.2,34.9,63.7,34.9L63.7,34.9C63.7,34.9,63.7,34.9,63.7,34.9L63.7,34.9z M63.7,36.9L63.7,36.9L63.7,36.9L63.7,36.9z"
			/>
	</g>
	<g>
		<path class="st3" d="M49,19c-0.2,0-0.3-0.1-0.4-0.3c-0.1-0.2-0.1-0.3,0-0.5l2.4-4.1c0.1-0.1,0.2-0.2,0.4-0.2
			c0,0,29.8-1.8,29.8-1.8c0.2,0,0.4,0.2,0.5,0.4l2.2,8.1c0,0.2,0,0.3-0.1,0.4c-0.1,0.1-0.2,0.2-0.4,0.2C83.4,21.2,49,19,49,19z"/>
		<path class="st4" d="M81.2,12.5l2.2,8.1l-34.3-2.2l2.4-4.1L81.2,12.5 M81.2,11.5C81.2,11.5,81.2,11.5,81.2,11.5l-29.8,1.8
			c-0.3,0-0.6,0.2-0.8,0.5L48.2,18c-0.2,0.3-0.2,0.7,0,1c0.2,0.3,0.5,0.5,0.8,0.5l34.3,2.2c0,0,0,0,0.1,0c0.3,0,0.6-0.1,0.8-0.4
			c0.2-0.2,0.3-0.6,0.2-0.9l-2.2-8.1C82.1,11.8,81.7,11.5,81.2,11.5L81.2,11.5z"/>
	</g>
	<g>
		<path class="st3" d="M28.2,54.2c-0.2,0-0.3-0.1-0.4-0.3c-0.1-0.2-0.1-0.3,0-0.5l2.4-4.1c0.1-0.1,0.2-0.2,0.4-0.2
			c0,0,26.1-1.8,26.1-1.8c0.2,0,0.3,0.1,0.4,0.2c0.1,0.2,0.1,0.4,0,0.5L53.6,54c-0.1,0.2-0.3,0.2-0.4,0.2H28.2z"/>
		<path class="st4" d="M56.6,47.9L56.6,47.9 M56.6,47.9l-3.5,5.8h-25l2.4-4.1L56.6,47.9 M56.6,46.9C56.6,46.9,56.6,46.9,56.6,46.9
			C56.6,46.9,56.6,46.9,56.6,46.9l-26.1,1.8c-0.3,0-0.6,0.2-0.8,0.5l-2.4,4.1c-0.2,0.3-0.2,0.7,0,1c0.2,0.3,0.5,0.5,0.9,0.5h25
			c0.4,0,0.7-0.2,0.9-0.5l3.5-5.8c0.1-0.2,0.2-0.4,0.2-0.6C57.6,47.3,57.2,46.9,56.6,46.9L56.6,46.9C56.6,46.9,56.6,46.9,56.6,46.9
			L56.6,46.9z M56.6,48.9L56.6,48.9L56.6,48.9L56.6,48.9z"/>
	</g>
	<g>
		<path class="st3" d="M56,7.2c-0.2,0-0.3-0.1-0.4-0.3c-0.1-0.2-0.1-0.3,0-0.5L58,2.4c0.1-0.2,0.3-0.2,0.4-0.2h20.1
			c0.2,0,0.4,0.2,0.5,0.4L80.5,8c0,0.2,0,0.3-0.1,0.4c-0.1,0.1-0.2,0.2-0.4,0.2C80,8.7,56,7.2,56,7.2z"/>
		<path class="st4" d="M78.5,2.6L80,8.2L56,6.7l2.4-4.1H78.5 M78.5,1.6H58.4c-0.4,0-0.7,0.2-0.9,0.5l-2.4,4.1c-0.2,0.3-0.2,0.7,0,1
			c0.2,0.3,0.5,0.5,0.8,0.5l24,1.5c0,0,0,0,0.1,0c0.3,0,0.6-0.1,0.8-0.4C81,8.5,81.1,8.2,81,7.9l-1.5-5.5C79.3,1.9,79,1.6,78.5,1.6
			L78.5,1.6z"/>
	</g>
</g>
</svg>
