<?xml version="1.0" encoding="utf-8"?>
<!-- Generator: Adobe Illustrator 23.0.1, SVG Export Plug-In . SVG Version: 6.00 Build 0)  -->
<svg version="1.1" id="Layer_1" xmlns="http://www.w3.org/2000/svg" xmlns:xlink="http://www.w3.org/1999/xlink" x="0px" y="0px"
	 viewBox="0 0 305 150.1" style="enable-background:new 0 0 305 150.1;" xml:space="preserve">
<style type="text/css">
	.st0{fill:#D85050;}
	.st1{fill:#FFFFFF;}
</style>
<title>nike-logo</title>
<g>
	<path class="st0" d="M43.3,147.1c-10.7,0-20-4.7-27.8-13.8C-9.5,103.8,27,37.7,43.9,10.7c0.2-0.3,0.5-0.5,0.8-0.5
		c0.1,0,0.3,0,0.4,0.1c0.5,0.2,0.7,0.8,0.5,1.2c-9.8,26.8-10.1,48.9-0.8,62.2c5.3,7.5,13.3,11.7,22.6,11.7c4.1,0,8.2-0.8,12.2-2.3
		c8.7-3.2,211.8-78.5,212.8-78.8c0.5-0.2,1-0.3,1.4-0.3c0.9,0,1.6,0.4,1.9,1.2c0.3,1-0.3,2.1-1.6,3c-2,1.2-195.7,116.2-213.2,125.8
		l-0.4,0.2C70,139.9,56.8,147.1,43.3,147.1z"/>
	<path class="st1" d="M293.9,4.9c1.3,0,1.2,1.3-0.3,2.3c0,0-195.4,116-213.1,125.7c-10.5,5.7-23.8,13.1-37.3,13.1
		c-9.3,0-18.6-3.5-27-13.5c-21.4-25.3,2.8-80.2,28.5-121.4C26,62.4,45,86.4,67.5,86.4c4.1,0,8.4-0.8,12.6-2.4
		c0,0,211.8-78.5,212.7-78.8C293.3,5,293.6,4.9,293.9,4.9 M293.9,2.9c-0.5,0-1.1,0.1-1.7,0.3c-1,0.3-204.1,75.6-212.8,78.8
		c-4,1.5-8,2.3-11.9,2.3c-9,0-16.7-4-21.8-11.2c-9.1-13-8.8-34.8,0.9-61.2c0.4-1-0.1-2-1-2.5c-0.3-0.1-0.6-0.2-0.9-0.2
		c-0.7,0-1.3,0.3-1.7,0.9c-10.6,17-24.7,42.4-32.1,67.2c-7.6,25.6-6.4,44.6,3.8,56.6c8,9.4,17.6,14.2,28.6,14.2
		c13.8,0,27.2-7.3,37.9-13.2l0.4-0.2C99,125.1,292.7,10.1,294.7,9c0,0,0.1,0,0.1-0.1c1.6-1.1,2.4-2.7,2-4.1
		C296.5,3.9,295.6,2.9,293.9,2.9L293.9,2.9z"/>
</g>
</svg>
