<?xml version="1.0" encoding="utf-8"?>
<!-- Generator: Adobe Illustrator 23.0.1, SVG Export Plug-In . SVG Version: 6.00 Build 0)  -->
<svg version="1.1" id="Layer_1" xmlns="http://www.w3.org/2000/svg" xmlns:xlink="http://www.w3.org/1999/xlink" x="0px" y="0px"
	 viewBox="0 0 166 83" style="enable-background:new 0 0 166 83;" xml:space="preserve">
<style type="text/css">
	.st0{fill-rule:evenodd;clip-rule:evenodd;fill:#D85050;}
	.st1{fill:#FFFFFF;}
	.st2{display:none;}
	.st3{display:inline;fill-rule:evenodd;clip-rule:evenodd;fill:#D85050;}
	.st4{display:inline;fill:#FFFFFF;}
</style>
<g>
	<title>puma-logo</title>
	<g>
		<path class="st0" d="M146.8,63.5c-5.7-0.3-5.4-7.4-5.3-9.7c0,0,0-0.1,0-0.1c0,0,0-0.1,0-0.1c-0.3-0.2-0.9-0.7-1.5-1.2
			c-1.3-1-1.7-1.3-1.8-1.4c-3.8-3.8-6.2-7.2-7.5-10.6c-0.9-2.3-1.7-4.2-3.1-5.5c-1.4-1.3-3.2-2.1-5.1-2.2c-11-0.1-15.1-4.1-18.1-7.1
			c-0.6-0.6-1.2-1.2-1.8-1.7c-1.3,1.3-3.1,2.1-4.9,2.1c-0.1,0-0.3,0-0.4,0c0,0,0,0,0,0c-2.7,0-5.4-1.3-7.4-2.2
			c-0.7-0.3-1.5-0.7-2-0.8c0,0.1,0,0.2-0.1,0.3c-0.1,0.6-0.3,1.8-1.7,2.1c-0.2,0-0.3,0-0.4,0l-0.2,0c-2.1,0-3.9-1.6-3.9-3.8
			c0,0,0-0.1,0-0.1c0.3-2.5,2.3-4,6.1-4.5c0.3,0,0.6,0,0.9,0c1.1,0,2.1,0.1,3.1,0.4c0-0.1,0.1-0.4,0-0.7c0-0.2-0.2-0.3-1.1-0.5
			l-0.2,0c-0.1,0-0.1,0-0.2,0c-0.2,0-0.5,0.1-0.8,0.2c-0.4,0.1-0.8,0.3-1.3,0.3c-0.3,0-0.5,0-0.8-0.1c-0.9-0.3-1.3-0.8-1.6-1.1
			c-0.1-0.2-0.3-0.3-0.5-0.5c-0.3-0.2-0.5-0.4-0.8-0.6c-0.8-0.5-1.7-1.2-1.7-2.5c0-1.1,0.8-1.7,1.3-2c0.3-0.2,0.5-0.4,0.6-0.5
			c0.1-0.1,0.1-0.3,0.1-0.5c0-0.3,0.1-0.6,0.3-1c0.4-0.7,1-1,1.5-1.3c0.3-0.1,0.5-0.2,0.7-0.4c0.4-0.4,0.7-0.9,0.9-1.5
			c0.4-0.8,0.8-1.5,1.5-1.6c0.1,0,0.1,0,0.2,0c0.2,0,0.4,0,0.5,0.1c0.5,0.2,0.8,0.6,1.1,1.1c0,0,0.1,0.1,0.1,0.1c0,0,0,0,0,0
			c0.5-0.6,1.1-1.3,1.9-1.3c0,0,0.1,0,0.2,0c0.4,0.1,0.8,0.1,2,2.5c8.9,0.8,19,9.8,22.3,12.8c0.4,0.4,0.7,0.6,0.9,0.8
			c2.8,2.6,5.9,4.6,9.4,6.1c1.8,0.8,3.8,1.2,5.7,1.2c0.3,0,0.5,0,0.8,0c2.5-0.2,5.5-2.5,7.4-5.8c0.6-1.1,1.2-2.4,1.8-3.9
			c1.7-4.2,3.8-9.3,9.4-12.7c0.8-0.5,2.1-1.2,3.5-1.2c1,0,1.9,0.4,2.5,1.2c1.5,1.9,0.4,4.7-1,6.1c-0.8,0.8-2.2,1.6-4.7,2.7
			c-0.8,0.5-1.7,1-2.5,1.7c-2.4,1.8-4.2,6.2-6.2,10.8l-0.1,0.2c0,0.1-1,2.5-4.8,5.2c0,0,0,0,0,0.1c0.1,0.1,0.3,0.3,0.4,0.5
			c1.2,1.6,3,6.9,2.8,14.5c0,0.8,0.2,1.2,0.7,1.9c0.1,0.2,0.2,0.4,0.3,0.6c0.3,0.6,0.8,0.9,1.3,1.2c0.8,0.5,2,1.3,2,3.3
			c0,1.5,0.5,2.3,1,3c0.5,0.8,1.1,1.7,0.5,3c-0.3,0.9-0.4,1.8-0.3,2.8c0,0,0,0.1,0,0.1c0,0.1,0,0.1,0,0.2c0,0.4,0.1,1.1-0.4,1.6
			c-0.3,0.3-0.8,0.5-1.4,0.5L146.8,63.5z"/>
		<path class="st1" d="M156.8,3.5c0.6,0,1.2,0.2,1.7,0.8c1.1,1.4,0.2,3.6-0.9,4.7c-0.7,0.7-2,1.4-4.4,2.5c-1,0.5-1.9,1.1-2.7,1.8
			c-2.6,2-4.5,6.5-6.6,11.4c0,0-0.9,2.4-4.9,5c-0.7,0.4-0.1,0.8,0.7,1.7c0.9,1.2,2.8,6.2,2.6,13.8c0,1.3,0.5,1.9,1.1,3
			c1.1,1.9,3.2,1.5,3.1,4c-0.1,3.4,2.4,4.1,1.6,5.6c-0.4,1.1-0.5,2.2-0.4,3.3c0,0.5,0.3,1.3-0.7,1.3c0,0-0.1,0-0.1,0
			c-4.7-0.3-4.4-6.6-4.3-8.8c0-0.3,0-0.6-0.2-0.8c-0.2-0.2-3.2-2.5-3.4-2.7c-3.6-3.6-6-6.9-7.3-10.2c-0.9-2.3-1.8-4.4-3.3-5.8
			c-1.5-1.5-3.6-2.3-5.7-2.5c-13.2-0.1-15.9-5.8-19.5-8.7c-0.2-0.1-0.4-0.2-0.6-0.3c-0.2,0-0.4,0.3-0.5,0.4
			c-1.1,1.2-2.7,1.9-4.3,1.9c-0.1,0-0.2,0-0.3,0c-4,0-8.3-3.1-9.7-3.1c-0.2,0-0.3,0-0.4,0.1c-0.7,0.7-0.1,2.1-1.3,2.3
			c-0.1,0-0.2,0-0.3,0c0,0-0.1,0-0.1,0c-1.6,0-2.9-1.2-2.9-2.8c0.3-2.6,2.9-3.3,5.2-3.6c0.3,0,0.5,0,0.8,0c1,0,2,0.1,3,0.4
			c0.1,0,0.1,0,0.2,0c0.9,0,1.1-1.1,0.9-2c-0.2-0.9-1-1.1-1.9-1.3c-0.2,0-0.3-0.1-0.5-0.1c-0.7,0-1.5,0.4-2.1,0.4
			c-0.2,0-0.3,0-0.5-0.1c-1-0.3-1-0.8-1.8-1.5c-1-0.9-2.1-1.2-2.1-2.3c0-1.1,1.4-1.2,1.8-2.2c0.2-0.5,0.1-1,0.3-1.3
			c0.5-0.8,1.3-0.8,2-1.5c0.9-0.9,1.4-2.7,1.9-2.8l0,0c0,0,0,0,0,0c0.5,0,1.2,1.6,1.7,1.6c0,0,0,0,0.1,0c0.5-0.2,1.2-1.6,1.9-1.6
			c0,0,0,0,0.1,0c0.3,0,1.5,2.4,1.5,2.4c9.7,0.4,21.6,12.1,23.2,13.4c2.8,2.6,6.1,4.7,9.6,6.3c1.9,0.9,4,1.3,6.1,1.3
			c0.3,0,0.5,0,0.8,0c2.9-0.2,6.2-2.8,8.2-6.3c2.5-4.3,3.6-11.9,10.8-16.2C154.5,4.2,155.7,3.5,156.8,3.5 M89.8,3.7L89.8,3.7
			 M156.8,1.5C156.8,1.5,156.8,1.5,156.8,1.5c-1.6,0-3.1,0.9-3.9,1.3l0,0c-6,3.5-8.1,8.9-9.9,13.2c-0.6,1.4-1.1,2.7-1.7,3.8
			c-1.7,2.9-4.4,5.1-6.6,5.3c-0.2,0-0.4,0-0.7,0c-1.8,0-3.6-0.4-5.3-1.1c-3.4-1.5-6.4-3.5-9.1-5.9c0,0-0.1-0.1-0.1-0.1
			c-0.2-0.1-0.4-0.4-0.8-0.7c-3.4-3-13.3-11.9-22.4-13c-1-1.9-1.6-2.4-2.5-2.5c-0.1,0-0.2,0-0.3,0c0,0,0,0,0,0
			c-0.8,0-1.4,0.4-1.9,0.8c-0.2-0.2-0.5-0.4-0.8-0.6c-0.3-0.1-0.6-0.2-0.9-0.2h0c-0.1,0-0.3,0-0.4,0C88.2,2,87.7,3,87.3,3.8
			c-0.2,0.4-0.5,1-0.8,1.2c0,0-0.2,0.1-0.4,0.2c-0.5,0.3-1.4,0.7-2,1.7c-0.3,0.5-0.3,1-0.4,1.3c0,0.1,0,0.1,0,0.2
			c-0.1,0.1-0.2,0.1-0.2,0.2c-0.5,0.4-1.7,1.2-1.7,2.8c0,1.8,1.3,2.8,2.1,3.3c0.2,0.2,0.5,0.3,0.7,0.5c0.2,0.1,0.3,0.3,0.4,0.4
			c0.1,0.2,0.3,0.4,0.5,0.6c-3.7,1-4.8,3.2-5,5c0,0.1,0,0.2,0,0.3c0.1,2.6,2.3,4.7,4.9,4.7c0.1,0,0.1,0,0.2,0c0.2,0,0.3,0,0.5,0
			c0,0,0.1,0,0.1,0c1.4-0.3,2-1.2,2.3-2c0.3,0.1,0.6,0.3,0.8,0.4c2.1,1,4.9,2.3,7.9,2.3c0.1,0,0.3,0,0.4,0c1.8,0,3.6-0.6,5-1.8
			c0.4,0.3,0.7,0.7,1.1,1.1c3.1,3.1,7.4,7.3,18.8,7.4c1.6,0.1,3.2,0.8,4.4,1.9c1.2,1.1,2,3,2.8,5.1c1.4,3.5,3.8,7,7.7,10.9
			c0,0,0,0,0,0c0.1,0.1,0.4,0.3,1.8,1.5c0.3,0.3,0.8,0.6,1.1,0.8c-0.2,6.7,1.9,10.2,6.2,10.5c0.1,0,0.2,0,0.2,0
			c1.1,0,1.7-0.5,2.1-0.8c0.8-0.8,0.7-1.9,0.6-2.3c0,0,0-0.1,0-0.1c0-0.1,0-0.2,0-0.3c-0.1-0.8,0-1.5,0.2-2.2
			c0.8-1.7-0.1-3.1-0.6-3.9c-0.5-0.7-0.9-1.3-0.8-2.5c0.1-2.6-1.5-3.6-2.4-4.2c-0.5-0.3-0.8-0.5-0.9-0.8c-0.1-0.2-0.3-0.4-0.4-0.6
			c-0.4-0.7-0.5-0.9-0.5-1.4c0.2-7.6-1.5-12.9-2.8-14.8c3.1-2.4,4.1-4.5,4.3-5l0.1-0.2c1.9-4.5,3.7-8.7,5.9-10.4
			c0.8-0.6,1.6-1.1,2.4-1.6c2.5-1.2,4-2,4.9-2.9c1.9-1.8,2.8-5.2,1.1-7.4C159.2,2,158.1,1.5,156.8,1.5L156.8,1.5L156.8,1.5z"/>
	</g>
	<g>
		<path class="st0" d="M38.6,78.5c-2.2,0-4-1.8-3.9-3.9v-33c0-0.6,0.4-1,1-1h9.9c0.6,0,1,0.4,1,1v30c0,0.4,0.3,0.7,0.7,0.7
			c0.4,0,0.7-0.3,0.7-0.7V41.5c0-0.6,0.4-1,1-1h9.9c0.6,0,1,0.4,1,1v33c0,1-0.4,2-1.1,2.8C58,78,57,78.4,55.9,78.5c0,0,0,0,0,0H38.6
			z"/>
		<path class="st1" d="M58.9,41.5v33c0,0,0,0,0,0c0,1.6-1.3,2.9-2.9,2.9H38.6c-1.6,0-3-1.3-2.9-2.9v-33h9.9v30
			c0,0.9,0.8,1.7,1.7,1.7c0.9,0,1.7-0.8,1.7-1.7v-30H58.9 M58.9,39.5h-9.9c-0.7,0-1.3,0.4-1.7,0.9c-0.4-0.6-1-0.9-1.7-0.9h-9.9
			c-1.1,0-2,0.9-2,2v33c0,2.7,2.2,4.9,4.9,4.9l17.4,0c1.3,0,2.6-0.5,3.5-1.5c0.9-0.9,1.4-2.2,1.4-3.5l0-33
			C60.9,40.4,60,39.5,58.9,39.5L58.9,39.5z"/>
	</g>
	<g>
		<path class="st0" d="M75.6,78.5c-0.6,0-1-0.4-1-1V47.4c0-0.4-0.3-0.7-0.7-0.7s-0.7,0.3-0.7,0.7v30c0,0.6-0.4,1-1,1h-9.9
			c-0.6,0-1-0.4-1-1V44.7c0-1.1,0.4-2.2,1.2-3c0.8-0.8,1.9-1.2,3-1.2h30.1c2.3,0,4.2,1.9,4.2,4.2v32.7c0,0.6-0.4,1-1,1h-9.9
			c-0.6,0-1-0.4-1-1v-30c0-0.4-0.3-0.6-0.7-0.6l0,0c-0.4,0-0.7,0.3-0.7,0.6v30.1c0,0.6-0.4,1-1,1H75.6z"/>
		<path class="st1" d="M95.6,41.5c1.8,0,3.2,1.5,3.2,3.2v32.7h-9.9v-30c0-0.9-0.8-1.6-1.7-1.6c0,0,0,0,0,0c0,0,0,0,0,0c0,0,0,0,0,0
			c-0.9,0-1.6,0.7-1.7,1.6v30.1h-9.9V47.4c0-0.9-0.8-1.7-1.7-1.7c-0.9,0-1.7,0.7-1.7,1.7v30h-9.9V44.7c0,0,0,0,0,0
			c0-1.8,1.4-3.2,3.2-3.2h15H95.6 M95.6,39.5H80.5h-15c-1.4,0-2.7,0.5-3.7,1.5c-1,1-1.5,2.3-1.5,3.7l0,32.7c0,1.1,0.9,2,2,2h9.9
			c0.7,0,1.3-0.4,1.7-0.9c0.4,0.6,1,0.9,1.7,0.9h9.9c0.7,0,1.3-0.4,1.7-0.9c0.4,0.5,1,0.9,1.7,0.9h9.9c1.1,0,2-0.9,2-2V44.7
			C100.8,41.9,98.5,39.5,95.6,39.5C95.6,39.5,95.6,39.5,95.6,39.5L95.6,39.5z"/>
	</g>
	<g>
		<path class="st0" d="M9,78.5c-0.6,0-1-0.4-1-1v-36c0-0.6,0.4-1,1-1h20.1c1.1,0,2.2,0.4,3,1.2c0.8,0.8,1.2,1.8,1.2,3l0,20.5
			c0,1.1-0.4,2.2-1.2,3c-0.8,0.8-1.9,1.2-3,1.3h-9.1v8c0,0.6-0.4,1-1,1H9z M20.6,63c0.4,0,0.7-0.3,0.7-0.7l0-14.6c0-0.1,0-0.2,0-0.2
			c0-0.2-0.1-0.3-0.2-0.5c-0.1-0.1-0.3-0.2-0.5-0.2h-0.7V63H20.6z"/>
		<path class="st1" d="M29.1,41.5c1.8,0,3.2,1.4,3.2,3.2c0,0,0,0,0,0v20.4c0,1.8-1.4,3.2-3.2,3.2c0,0,0,0,0,0h0h-10v9H9v-36H29.1
			 M18.9,64h1.7c0.9,0,1.7-0.7,1.7-1.7c0,0,0,0,0,0V47.5l0,0c0-0.9-0.7-1.7-1.7-1.7c0,0,0,0,0,0h-1.7V64 M29.1,39.5H9
			c-1.1,0-2,0.9-2,2v36c0,1.1,0.9,2,2,2h9.9c1.1,0,2-0.9,2-2v-7h8c0,0,0.1,0,0.1,0c1.4,0,2.7-0.6,3.7-1.5c1-1,1.5-2.3,1.5-3.7
			l0-20.4c0-1.4-0.5-2.7-1.5-3.7C31.8,40,30.5,39.5,29.1,39.5C29.1,39.5,29.1,39.5,29.1,39.5L29.1,39.5z"/>
	</g>
	<g class="st2">
		<path class="st3" d="M135,84c-2.9-0.1-5.3-2.6-5.2-5.6c0.1-3,2.4-5.3,5.2-5.4c0,0,0.1,0,0.1,0c2.9,0,5.3,2.4,5.3,5.4v0.2
			c-0.1,3-2.5,5.4-5.3,5.4L135,84z M135.1,74.8c-2,0-3.6,1.7-3.6,3.8c0,2,1.6,3.7,3.6,3.7c2,0,3.6-1.7,3.6-3.8
			C138.7,76.5,137.1,74.8,135.1,74.8l0-0.5L135.1,74.8z"/>
		<path class="st4" d="M135.1,73.5c2.6,0,4.8,2.2,4.8,4.9c0,0.1,0,0.1,0,0.2c-0.1,2.7-2.2,4.9-4.8,4.9c0,0-0.1,0-0.1,0
			c-2.7-0.1-4.8-2.3-4.7-5.1C130.4,75.7,132.5,73.6,135.1,73.5C135.1,73.5,135.1,73.5,135.1,73.5 M135.1,82.7
			C135.1,82.7,135.2,82.7,135.1,82.7c2.3,0,4.1-1.9,4.1-4.3c0-2.3-1.8-4.2-4.1-4.2h-0.1c-2.3,0-4.1,1.9-4.1,4.3
			C131.1,80.9,132.9,82.7,135.1,82.7 M135.1,72.5l-0.1,0c-3.1,0.1-5.7,2.6-5.7,5.9c-0.1,3.3,2.5,6.1,5.7,6.1l0.1,0
			c3.2,0,5.8-2.6,5.8-5.9c0-0.1,0-0.1,0-0.2C140.9,75.1,138.3,72.5,135.1,72.5L135.1,72.5z M135.1,82.7v-1c-1.7,0-3.1-1.4-3.1-3.2
			c0-1.8,1.4-3.2,3.1-3.3l0.1,0c1.7,0,3,1.4,3.1,3.2c0,1.8-1.4,3.2-3.1,3.3L135.1,82.7L135.1,82.7z"/>
	</g>
	<g class="st2">
		<path class="st3" d="M136.1,82c-0.2,0-0.3-0.1-0.4-0.2l-0.8-1.1v0.8c0,0.3-0.2,0.5-0.5,0.5h-1.1c-0.3,0-0.5-0.2-0.5-0.5v-5.8
			c0-0.3,0.2-0.5,0.5-0.5h1.1c2.5,0,2.8,1.6,2.8,2.2c0,0.7-0.4,1.4-0.9,1.8l1.4,1.9c0.1,0.1,0.1,0.2,0.1,0.3c0,0.3-0.2,0.5-0.5,0.5
			H136.1z M135,77.8c0.3-0.1,0.3-0.2,0.3-0.3c0-0.1,0-0.2-0.3-0.2V77.8z"/>
		<path class="st4" d="M134.5,75.7c1.5,0,2.3,0.6,2.3,1.7c0,0.7-0.5,1.4-1.1,1.6h-0.1l1.8,2.4v0h-1.3l-1.7-2.3v2.3h-1.1v-5.8H134.5
			 M134.5,78.3h0.2c0.7,0,1.2-0.3,1.2-0.8c0-0.6-0.4-0.8-1.1-0.8h-0.2V78.3 M134.5,74.7h-1.1c-0.6,0-1,0.4-1,1v5.8c0,0.6,0.4,1,1,1
			h1.1c0.3,0,0.7-0.2,0.8-0.4l0,0c0.2,0.3,0.5,0.4,0.8,0.4h1.3c0.6,0,1-0.4,1-1c0-0.2-0.1-0.5-0.2-0.6l-1.2-1.6
			c0.5-0.5,0.8-1.2,0.8-1.9C137.9,76.8,137.6,74.7,134.5,74.7L134.5,74.7z"/>
	</g>
	<g>
		<path class="st0" d="M115.5,78.5c-0.6,0-1-0.4-1-1v-8h-1.4v8c0,0.6-0.4,1-1,1h-9.9c-0.6,0-1-0.4-1-1V44.7c0-2.3,1.9-4.2,4.2-4.2
			h16.8c2.3,0,4.2,1.9,4.2,4.2v32.7c0,0.6-0.4,1-1,1H115.5z M114.5,63V47.4c0-0.4-0.3-0.7-0.7-0.7c-0.4,0-0.7,0.3-0.7,0.7v15.5
			L114.5,63z"/>
		<path class="st1" d="M122.2,41.5c1.8,0,3.2,1.5,3.2,3.2v32.7h-9.9v-9h-3.4v9h-9.9V44.7c0-1.8,1.4-3.2,3.2-3.2H122.2 M115.5,64
			V47.4c0-0.9-0.8-1.7-1.7-1.7s-1.7,0.7-1.7,1.7v16.5L115.5,64 M122.2,39.5h-16.8c-2.9,0-5.2,2.4-5.2,5.2l0,32.7c0,1.1,0.9,2,2,2
			h9.9c0.7,0,1.3-0.4,1.7-0.9c0.4,0.6,1,0.9,1.7,0.9h9.9c1.1,0,2-0.9,2-2V44.7C127.5,41.9,125.1,39.5,122.2,39.5
			C122.2,39.5,122.2,39.5,122.2,39.5L122.2,39.5z"/>
	</g>
</g>
</svg>
