<svg id="Layer_1" data-name="Layer 1" xmlns="http://www.w3.org/2000/svg" viewBox="0 0 305 203"><defs><style>.cls-1{fill:#fff;}</style></defs><title>adidas-logo</title><path class="cls-1" d="M488.87,308.94H475.56a8.84,8.84,0,0,0-1.93-4.63c-1.42-1.43-3.85-2.16-7.21-2.16s-5.59.55-6.88,1.65a4.29,4.29,0,0,0-1.47,3.4c0,2,2.81,3.62,8.35,4.86a131.19,131.19,0,0,1,13.68,3.54,19.57,19.57,0,0,1,1.84.73c5.65,2.66,8.44,6.71,8.44,12.12,0,6.61-2.75,11.43-8.21,14.46-.69.37-1.33.69-2.07,1a31,31,0,0,1-12.29,2.3c-6.93,0-12.54-1.24-16.8-3.68a15.87,15.87,0,0,1-6-5.88,16.56,16.56,0,0,1-2-8.3h13.95a6.61,6.61,0,0,0,2.57,5.56c1.7,1.33,4.59,2,8.67,2,3.07,0,5.37-.65,6.88-1.93a4.3,4.3,0,0,0,1.75-3.4c0-2.16-2.75-3.85-8.22-5.05-8.16-1.74-13.31-3.17-15.42-4.18-5.59-2.61-8.35-6.65-8.35-12.26a16,16,0,0,1,4.36-11.42c3.67-3.91,9.18-5.84,16.48-5.84,6,0,10.83.88,14.45,2.58a4.6,4.6,0,0,1,.88.46,14.6,14.6,0,0,1,5.91,5.65A16.9,16.9,0,0,1,488.87,308.94Z" transform="translate(-185.38 -144)"/><polygon class="cls-1" points="224.64 69.32 262.32 132.12 224.64 132.12 201.79 132.12 165.81 72.12 138.55 26.72 165.81 10.33 182.97 0 224.64 69.32"/><path class="cls-1" d="M437.38,319.73v25.75H424.85v-2.84A26.86,26.86,0,0,1,410.16,347H410a27.27,27.27,0,0,1,0-54.54h.14a26.86,26.86,0,0,1,14.69,4.36v-3h12.53Zm-12.53,2.85v-5.7a15,15,0,0,0-14.69-12.12H410a15,15,0,0,0,0,30h.14A15.06,15.06,0,0,0,424.85,322.58Z" transform="translate(-185.38 -144)"/><path class="cls-1" d="M378.54,319.73v25.75H366v-2.84A27,27,0,0,1,351.33,347h-.14a27.27,27.27,0,0,1,0-54.54h.14A27,27,0,0,1,366,296.82v-20.7h12.52ZM366,322.58v-5.7a15,15,0,0,0-14.69-12.12h-.14a15,15,0,0,0,0,30h.14A15.06,15.06,0,0,0,366,322.58Z" transform="translate(-185.38 -144)"/><polygon class="cls-1" points="165.81 107.42 180.58 132.12 165.81 132.12 120.1 132.12 86.51 76.21 85.04 73.77 86.51 72.9 129.51 47 165.81 107.42"/><rect class="cls-1" x="120.15" y="148.46" width="13.63" height="53.02"/><rect class="cls-1" x="120.15" y="132.39" width="13.63" height="11.98"/><path class="cls-1" d="M299.28,319.73v25.75H286.76v-2.84A27.12,27.12,0,0,1,272,347h-.14a27.27,27.27,0,0,1,0-54.54H272a27.12,27.12,0,0,1,14.73,4.36v-20.7h12.52Zm-12.52,2.85v-5.7A15,15,0,0,0,272,304.76h-.14a15,15,0,0,0,0,30H272A15.07,15.07,0,0,0,286.76,322.58Z" transform="translate(-185.38 -144)"/><polygon class="cls-1" points="86.51 111.46 98.9 132.12 86.51 132.12 38.37 132.12 31.57 120.78 76.04 94.06 86.51 111.46"/><path class="cls-1" d="M239.86,319.73v25.75H227.33v-2.84A27.12,27.12,0,0,1,212.6,347h-.14a27.27,27.27,0,0,1,0-54.54h.14a27.12,27.12,0,0,1,14.73,4.36v-3h12.53Zm-12.53,2.85v-5.7a15,15,0,0,0-14.73-12.12h-.14a15,15,0,0,0,0,30h.14A15.06,15.06,0,0,0,227.33,322.58Z" transform="translate(-185.38 -144)"/></svg>