<svg id="Layer_1" data-name="Layer 1" xmlns="http://www.w3.org/2000/svg" viewBox="0 0 166 83"><defs><style>.cls-1{fill:#fff;}</style></defs><title>newbalance-logo</title><path class="cls-1" d="M92.24,168.12V154h3.35v1.22a5.81,5.81,0,0,1,4.13-1.71,6.35,6.35,0,0,1,4.55,2c1.39,1.56,1.39,3.93,1.39,5v7.66H102v-7c0-1.17,0-4.54-3.05-4.54a3.17,3.17,0,0,0-2.48,1.25c-.65.87-.65,2.35-.65,3.55v6.74H92.24m18-8.3h8.35a4,4,0,0,0-4.08-3.31,4.31,4.31,0,0,0-4.27,3.31m.1,2.73a4.28,4.28,0,0,0,4.17,2.91,3.77,3.77,0,0,0,3.48-1.8h3.81a7.81,7.81,0,0,1-7.29,4.92,7.71,7.71,0,0,1-8-7.51,7.81,7.81,0,0,1,8-7.69,7.68,7.68,0,0,1,7.81,7.47,7.79,7.79,0,0,1-.21,1.7Zm16.6,5.57h2.23l2.86-9.19h.05l2.83,9.19h2.23L142.71,154h-3.87l-2.78,8.65H136L133.56,154h-2.88l-2.48,8.65h-.06L125.4,154h-3.87Zm26.13-7.27a4.44,4.44,0,0,0,4.55,4.61A4.25,4.25,0,0,0,162,161a4.3,4.3,0,0,0-4.41-4.42,4.38,4.38,0,0,0-4.49,4.27m-3.4-11.62h3.62v6a6.94,6.94,0,0,1,4.71-1.77,7.54,7.54,0,0,1,7.6,7.51c0,2.84-2,7.61-7.51,7.61a6.27,6.27,0,0,1-5.1-2.17v1.71h-3.32ZM179.11,161a4.28,4.28,0,0,0-4.42-4.42,4.43,4.43,0,0,0-4.49,4.52,4.37,4.37,0,0,0,4.49,4.36,4.3,4.3,0,0,0,4.42-4.46m3.42,7.12h-3.32v-1.76a7.73,7.73,0,0,1-5.28,2.22,7.29,7.29,0,0,1-7.35-7.63,7.39,7.39,0,0,1,7.57-7.49,6.57,6.57,0,0,1,5,2.28h.05V154h3.32Zm5.55-18.89h-3.62v18.89h3.62ZM201.68,161a4.27,4.27,0,0,0-4.4-4.42,4.43,4.43,0,0,0-4.5,4.52,4.37,4.37,0,0,0,4.5,4.36,4.29,4.29,0,0,0,4.4-4.46m3.44,7.12h-3.33v-1.76a7.71,7.71,0,0,1-5.28,2.22,7.29,7.29,0,0,1-7.35-7.63,7.39,7.39,0,0,1,7.58-7.49,6.56,6.56,0,0,1,5,2.28h0V154h3.33Zm1.92,0h3.62v-6.74c0-1.2,0-2.68.65-3.55a3.2,3.2,0,0,1,2.48-1.25c3.05,0,3.05,3.37,3.05,4.54v7h3.62v-7.66c0-1.1,0-3.47-1.39-5a6.33,6.33,0,0,0-4.54-2,5.82,5.82,0,0,0-4.14,1.71V154H207v14.17m26.28-4.62a3.9,3.9,0,0,1-3.34,2,4.38,4.38,0,0,1-4.55-4.44,4.26,4.26,0,0,1,4.38-4.44,3.74,3.74,0,0,1,3.51,2.07h4.09a7.93,7.93,0,0,0-7.6-5.19c-4.16,0-8,3.17-8,7.51,0,4.7,4.16,7.61,8,7.61a7.82,7.82,0,0,0,7.57-5.08h-4.09m8.35-3.68H250a4,4,0,0,0-4.08-3.31,4.32,4.32,0,0,0-4.27,3.31m.11,2.73a4.25,4.25,0,0,0,4.16,2.91,3.74,3.74,0,0,0,3.48-1.8h3.82a7.81,7.81,0,0,1-7.3,4.92,7.71,7.71,0,0,1-8-7.51,7.81,7.81,0,0,1,7.95-7.69,7.69,7.69,0,0,1,7.82,7.47,7.17,7.17,0,0,1-.22,1.7Zm-65.94-57.72,17.65,1.07-.68,1.1-60.2,3.67L129.93,115l55.93,3.31-.68,1.1-31.13,1.7,2.36,8.28,21.87,1.26-.68,1.1-20.17,1.33,1.9,7h38.51c9.27,0,25.94-5.76,27.87-17.83,1.1-6.81-5.23-9.44-7.76-9.72,12-3.16,16-10.71,16.9-13.7,2.88-9.9-4.54-13.26-14.57-13.26H187.66l-4.11,6.7,17.59,1.16-.66,1.11-19,1.14-5.62,9.14m31.57-8.58h5.39c2.32,0,4.07,2.54,2.77,5.53-1.41,3.22-5.27,4.81-9,4.83l-5.57,0ZM201,117.06c1.94,0,4.71,1.89,3.2,5.56-1.63,3.94-6.92,5.33-9.88,5.33h-6.38l6.7-10.89Zm-83.79,18.7-2.68,4.36,27.67,0,3.86-6.23ZM145.34,90l26.6,1.56-1.68-5.91-22.24,0Zm-5,8.18-2.67,4.36,38,2.34-2.42-8.65Zm-15.4,25.08-2.68,4.37L149,129l4.84-7.84Zm132.93,43.21a1.67,1.67,0,1,0-1.67,1.61,1.61,1.61,0,0,0,1.67-1.61m-3.74,0a2.08,2.08,0,1,1,2.07,1.92,2,2,0,0,1-2.07-1.92m1.64-.13h.43c.44,0,.59-.12.59-.36s-.11-.33-.53-.33h-.49Zm0,1.24h-.36v-2.21h.9c.56,0,.84.2.84.63s-.27.57-.62.61l.67,1h-.39l-.63-1h-.41Z" transform="translate(-92.24 -85.58)"/></svg>