<svg id="Layer_1" data-name="Layer 1" xmlns="http://www.w3.org/2000/svg" viewBox="0 0 166 83"><defs><style>.cls-1{fill:#fff;fill-rule:evenodd;}</style></defs><title>puma-logo</title><path class="cls-1" d="M181.44,86.28c-.55.09-1.07,2.09-2.12,3.14-.77.75-1.72.71-2.23,1.64-.2.35-.13.94-.35,1.51-.43,1.14-1.94,1.25-1.94,2.49s1.26,1.6,2.35,2.56c.86.76.94,1.29,2,1.67s2.2-.69,3.38-.33c1,.29,1.9.49,2.12,1.49s0,2.36-1.19,2.19a13.17,13.17,0,0,0-4.23-.4c-2.55.29-5.46,1.13-5.75,4a3.27,3.27,0,0,0,3.71,3.1c1.31-.26.69-1.82,1.41-2.57.93-1,6.24,3.37,11.18,3.37a6.41,6.41,0,0,0,5.16-2.14c.14-.12.32-.38.54-.4a1.91,1.91,0,0,1,.69.31c4,3.21,7,9.64,21.6,9.71a9.87,9.87,0,0,1,6.3,2.75c1.71,1.58,2.71,4,3.68,6.54,1.46,3.75,4.08,7.39,8.05,11.45.22.21,3.49,2.76,3.75,3a1.6,1.6,0,0,1,.2.92c-.1,2.43-.45,9.5,4.8,9.82,1.29.07.95-.84.95-1.46a7.5,7.5,0,0,1,.42-3.72c.89-1.73-1.87-2.53-1.8-6.28.06-2.79-2.28-2.32-3.46-4.45-.69-1.23-1.3-1.89-1.25-3.4.27-8.49-1.8-14.07-2.83-15.44-.81-1-1.47-1.45-.74-1.92,4.38-2.91,5.38-5.61,5.38-5.61,2.33-5.5,4.43-10.52,7.32-12.74a21.82,21.82,0,0,1,3-2c2.7-1.28,4.12-2.05,4.9-2.82,1.24-1.21,2.22-3.74,1-5.27-1.48-1.89-4-.39-5.16.28-8.06,4.8-9.25,13.27-12,18.13-2.23,3.89-5.85,6.74-9.08,7a16.08,16.08,0,0,1-7.65-1.46,38.23,38.23,0,0,1-10.62-7C211.17,102.5,198,89.48,187.25,89c0,0-1.33-2.67-1.66-2.71-.78-.1-1.59,1.59-2.16,1.79s-1.45-1.84-2-1.75Z" transform="translate(-91.97 -86)"/><path class="cls-1" d="M134.3,164a1.91,1.91,0,0,1-1.86-1.88V128.58h-11v36.95a3.28,3.28,0,0,0,3.26,3.29h19.24a3.27,3.27,0,0,0,3.25-3.29V128.58h-11V162.1A1.92,1.92,0,0,1,134.3,164Z" transform="translate(-91.97 -86)"/><path class="cls-1" d="M171.15,128.58H154.5a3.59,3.59,0,0,0-3.58,3.61v36.63h11v-33.6a1.87,1.87,0,0,1,3.74,0v33.63h11V135.19a1.83,1.83,0,0,1,1.86-1.81,1.86,1.86,0,0,1,1.87,1.84v33.6h11V132.19a3.6,3.6,0,0,0-3.58-3.61Z" transform="translate(-91.97 -86)"/><path class="cls-1" d="M114.09,158.71H103v10.11H92V128.58h22.19a3.56,3.56,0,0,1,3.54,3.63v22.87a3.61,3.61,0,0,1-3.61,3.63Zm-7.39-23.42a1.88,1.88,0,0,0-1.86-1.91H103v20.35h1.87a1.86,1.86,0,0,0,1.86-1.89V135.29Z" transform="translate(-91.97 -86)"/><path class="cls-1" d="M234.1,164.05a4.9,4.9,0,1,1-5-5,4.91,4.91,0,0,1,5,5Zm-4.95-4.23a4.14,4.14,0,1,0,.07,0Z" transform="translate(-91.97 -86)"/><path class="cls-1" d="M231.53,166.91h-1.32l-1.69-2.25v2.25h-1.07v-5.7h1.13c1.53,0,2.35.58,2.35,1.69a1.67,1.67,0,0,1-1.15,1.6l-.08,0,1.83,2.38Zm-2.82-3.18c.76,0,1.17-.27,1.17-.81s-.39-.74-1.14-.74h-.22v1.55Z" transform="translate(-91.97 -86)"/><path class="cls-1" d="M209.87,168.82V158.71h-3.74v10.11h-11V132.19a3.6,3.6,0,0,1,3.58-3.61h18.58a3.6,3.6,0,0,1,3.58,3.61v36.63Zm0-15.09V135.21a1.87,1.87,0,0,0-3.74,0v18.49Z" transform="translate(-91.97 -86)"/></svg>